<svg width="168" height="40" viewBox="0 0 168 40" fill="none" xmlns="http://www.w3.org/2000/svg">
<rect width="168" height="40" rx="4" stroke="#8F8F8F"/>
<path d="M16.2444 25C16.127 25 16.0364 24.968 15.9724 24.904C15.9084 24.8293 15.8764 24.7387 15.8764 24.632V14.184C15.8764 14.0667 15.9084 13.976 15.9724 13.912C16.0364 13.8373 16.127 13.8 16.2444 13.8H20.6284C21.4284 13.8 22.079 13.9333 22.5804 14.2C23.0924 14.456 23.4657 14.808 23.7004 15.256C23.9457 15.704 24.0684 16.2053 24.0684 16.76C24.0684 17.1973 23.9937 17.576 23.8444 17.896C23.7057 18.2053 23.5297 18.4613 23.3164 18.664C23.103 18.856 22.895 19.0053 22.6924 19.112C23.1084 19.3147 23.4764 19.6453 23.7964 20.104C24.127 20.5627 24.2924 21.1173 24.2924 21.768C24.2924 22.3547 24.159 22.8933 23.8924 23.384C23.6257 23.8747 23.2257 24.2693 22.6924 24.568C22.1697 24.856 21.519 25 20.7404 25H16.2444ZM17.4444 23.704H20.5324C21.2257 23.704 21.759 23.5173 22.1324 23.144C22.5057 22.7707 22.6924 22.312 22.6924 21.768C22.6924 21.2027 22.5057 20.7387 22.1324 20.376C21.759 20.0027 21.2257 19.816 20.5324 19.816H17.4444V23.704ZM17.4444 18.536H20.3884C21.071 18.536 21.5884 18.3813 21.9404 18.072C22.2924 17.752 22.4684 17.32 22.4684 16.776C22.4684 16.232 22.2924 15.816 21.9404 15.528C21.5884 15.24 21.071 15.096 20.3884 15.096H17.4444V18.536ZM29.7159 25.16C28.9585 25.16 28.3025 25.016 27.7479 24.728C27.2039 24.4293 26.7825 24.008 26.4839 23.464C26.1852 22.9093 26.0252 22.248 26.0039 21.48C25.9932 21.32 25.9879 21.1067 25.9879 20.84C25.9879 20.5733 25.9932 20.36 26.0039 20.2C26.0252 19.432 26.1852 18.776 26.4839 18.232C26.7825 17.6773 27.2039 17.256 27.7479 16.968C28.3025 16.6693 28.9585 16.52 29.7159 16.52C30.3345 16.52 30.8625 16.6053 31.2999 16.776C31.7479 16.9467 32.1159 17.1653 32.4039 17.432C32.6919 17.6987 32.9052 17.9867 33.0439 18.296C33.1932 18.6053 33.2732 18.8987 33.2839 19.176C33.2945 19.2827 33.2625 19.368 33.1879 19.432C33.1132 19.496 33.0225 19.528 32.9159 19.528H32.1479C32.0412 19.528 31.9612 19.5067 31.9079 19.464C31.8545 19.4107 31.8012 19.3253 31.7479 19.208C31.5559 18.6853 31.2945 18.3173 30.9639 18.104C30.6332 17.8907 30.2225 17.784 29.7319 17.784C29.0919 17.784 28.5692 17.9813 28.1639 18.376C27.7692 18.7707 27.5559 19.4053 27.5239 20.28C27.5132 20.664 27.5132 21.0373 27.5239 21.4C27.5559 22.2853 27.7692 22.9253 28.1639 23.32C28.5692 23.704 29.0919 23.896 29.7319 23.896C30.2225 23.896 30.6332 23.7893 30.9639 23.576C31.2945 23.3627 31.5559 22.9947 31.7479 22.472C31.8012 22.3547 31.8545 22.2747 31.9079 22.232C31.9612 22.1787 32.0412 22.152 32.1479 22.152H32.9159C33.0225 22.152 33.1132 22.184 33.1879 22.248C33.2625 22.312 33.2945 22.3973 33.2839 22.504C33.2732 22.728 33.2252 22.9573 33.1399 23.192C33.0545 23.4267 32.9159 23.6667 32.7239 23.912C32.5425 24.1467 32.3132 24.36 32.0359 24.552C31.7585 24.7333 31.4225 24.8827 31.0279 25C30.6439 25.1067 30.2065 25.16 29.7159 25.16ZM38.496 25.16C37.3973 25.16 36.5227 24.824 35.872 24.152C35.2213 23.4693 34.864 22.5413 34.8 21.368C34.7893 21.2293 34.784 21.0533 34.784 20.84C34.784 20.616 34.7893 20.4347 34.8 20.296C34.8427 19.5387 35.0187 18.8773 35.328 18.312C35.6373 17.736 36.0587 17.2933 36.592 16.984C37.136 16.6747 37.7707 16.52 38.496 16.52C39.3067 16.52 39.984 16.6907 40.528 17.032C41.0827 17.3733 41.504 17.8587 41.792 18.488C42.08 19.1173 42.224 19.8533 42.224 20.696V20.968C42.224 21.0853 42.1867 21.176 42.112 21.24C42.048 21.304 41.9627 21.336 41.856 21.336H36.32C36.32 21.3467 36.32 21.368 36.32 21.4C36.32 21.432 36.32 21.4587 36.32 21.48C36.3413 21.9173 36.4373 22.328 36.608 22.712C36.7787 23.0853 37.024 23.3893 37.344 23.624C37.664 23.8587 38.048 23.976 38.496 23.976C38.88 23.976 39.2 23.9173 39.456 23.8C39.712 23.6827 39.92 23.5547 40.08 23.416C40.24 23.2667 40.3467 23.1547 40.4 23.08C40.496 22.9413 40.5707 22.8613 40.624 22.84C40.6773 22.808 40.7627 22.792 40.88 22.792H41.648C41.7547 22.792 41.84 22.824 41.904 22.888C41.9787 22.9413 42.0107 23.0213 42 23.128C41.9893 23.288 41.904 23.4853 41.744 23.72C41.584 23.944 41.3547 24.168 41.056 24.392C40.7573 24.616 40.3947 24.8027 39.968 24.952C39.5413 25.0907 39.0507 25.16 38.496 25.16ZM36.32 20.232H40.704V20.184C40.704 19.704 40.6133 19.2773 40.432 18.904C40.2613 18.5307 40.0107 18.2373 39.68 18.024C39.3493 17.8 38.9547 17.688 38.496 17.688C38.0373 17.688 37.6427 17.8 37.312 18.024C36.992 18.2373 36.7467 18.5307 36.576 18.904C36.4053 19.2773 36.32 19.704 36.32 20.184V20.232ZM48.427 25C48.3203 25 48.2297 24.968 48.155 24.904C48.091 24.8293 48.059 24.7387 48.059 24.632V17.048C48.059 16.9413 48.091 16.856 48.155 16.792C48.2297 16.7173 48.3203 16.68 48.427 16.68H54.779C54.8857 16.68 54.971 16.7173 55.035 16.792C55.1097 16.856 55.147 16.9413 55.147 17.048V24.632C55.147 24.7387 55.1097 24.8293 55.035 24.904C54.971 24.968 54.8857 25 54.779 25H54.011C53.9043 25 53.819 24.968 53.755 24.904C53.691 24.8293 53.659 24.7387 53.659 24.632V17.96H49.547V24.632C49.547 24.7387 49.515 24.8293 49.451 24.904C49.387 24.968 49.3017 25 49.195 25H48.427ZM57.9118 28.04C57.8051 28.04 57.7144 28.0027 57.6398 27.928C57.5758 27.864 57.5438 27.7787 57.5438 27.672V17.048C57.5438 16.9413 57.5758 16.856 57.6398 16.792C57.7144 16.7173 57.8051 16.68 57.9118 16.68H58.6478C58.7544 16.68 58.8398 16.7173 58.9038 16.792C58.9784 16.856 59.0158 16.9413 59.0158 17.048V17.752C59.2718 17.4 59.6131 17.1067 60.0398 16.872C60.4664 16.6373 60.9998 16.52 61.6398 16.52C62.2371 16.52 62.7438 16.6213 63.1598 16.824C63.5864 17.0267 63.9331 17.304 64.1998 17.656C64.4771 18.008 64.6851 18.408 64.8238 18.856C64.9624 19.304 65.0371 19.784 65.0478 20.296C65.0584 20.4667 65.0638 20.648 65.0638 20.84C65.0638 21.032 65.0584 21.2133 65.0478 21.384C65.0371 21.8853 64.9624 22.3653 64.8238 22.824C64.6851 23.272 64.4771 23.672 64.1998 24.024C63.9331 24.3653 63.5864 24.6427 63.1598 24.856C62.7438 25.0587 62.2371 25.16 61.6398 25.16C61.0211 25.16 60.4984 25.048 60.0718 24.824C59.6558 24.5893 59.3144 24.3013 59.0478 23.96V27.672C59.0478 27.7787 59.0158 27.864 58.9518 27.928C58.8878 28.0027 58.7971 28.04 58.6798 28.04H57.9118ZM61.3038 23.864C61.8584 23.864 62.2904 23.7467 62.5998 23.512C62.9198 23.2667 63.1491 22.952 63.2878 22.568C63.4264 22.1733 63.5064 21.752 63.5278 21.304C63.5384 20.9947 63.5384 20.6853 63.5278 20.376C63.5064 19.928 63.4264 19.512 63.2878 19.128C63.1491 18.7333 62.9198 18.4187 62.5998 18.184C62.2904 17.9387 61.8584 17.816 61.3038 17.816C60.7811 17.816 60.3544 17.9387 60.0238 18.184C59.7038 18.4293 59.4638 18.744 59.3038 19.128C59.1544 19.5013 59.0691 19.8853 59.0478 20.28C59.0371 20.4507 59.0318 20.6533 59.0318 20.888C59.0318 21.1227 59.0371 21.3307 59.0478 21.512C59.0584 21.8853 59.1438 22.2533 59.3038 22.616C59.4744 22.9787 59.7251 23.2773 60.0558 23.512C60.3864 23.7467 60.8024 23.864 61.3038 23.864ZM70.467 25.16C69.6563 25.16 68.979 25.0053 68.435 24.696C67.891 24.3867 67.475 23.96 67.187 23.416C66.899 22.8613 66.739 22.232 66.707 21.528C66.6963 21.3467 66.691 21.1173 66.691 20.84C66.691 20.552 66.6963 20.3227 66.707 20.152C66.739 19.4373 66.899 18.808 67.187 18.264C67.4857 17.72 67.907 17.2933 68.451 16.984C68.995 16.6747 69.667 16.52 70.467 16.52C71.267 16.52 71.939 16.6747 72.483 16.984C73.027 17.2933 73.443 17.72 73.731 18.264C74.0297 18.808 74.195 19.4373 74.227 20.152C74.2377 20.3227 74.243 20.552 74.243 20.84C74.243 21.1173 74.2377 21.3467 74.227 21.528C74.195 22.232 74.035 22.8613 73.747 23.416C73.459 23.96 73.043 24.3867 72.499 24.696C71.955 25.0053 71.2777 25.16 70.467 25.16ZM70.467 23.928C71.1283 23.928 71.6563 23.72 72.051 23.304C72.4457 22.8773 72.659 22.2587 72.691 21.448C72.7017 21.288 72.707 21.0853 72.707 20.84C72.707 20.5947 72.7017 20.392 72.691 20.232C72.659 19.4213 72.4457 18.808 72.051 18.392C71.6563 17.9653 71.1283 17.752 70.467 17.752C69.8057 17.752 69.2723 17.9653 68.867 18.392C68.4723 18.808 68.2643 19.4213 68.243 20.232C68.2323 20.392 68.227 20.5947 68.227 20.84C68.227 21.0853 68.2323 21.288 68.243 21.448C68.2643 22.2587 68.4723 22.8773 68.867 23.304C69.2723 23.72 69.8057 23.928 70.467 23.928ZM75.7665 26.76C75.6598 26.76 75.5692 26.7227 75.4945 26.648C75.4305 26.584 75.3985 26.4987 75.3985 26.392V24.088C75.3985 23.9813 75.4305 23.896 75.4945 23.832C75.5692 23.7573 75.6598 23.72 75.7665 23.72H75.8465C76.1345 23.7093 76.3798 23.5493 76.5825 23.24C76.7852 22.92 76.9398 22.424 77.0465 21.752C77.1532 21.0693 77.2065 20.184 77.2065 19.096V17.048C77.2065 16.9413 77.2385 16.856 77.3025 16.792C77.3772 16.7173 77.4678 16.68 77.5745 16.68H82.6785C82.7852 16.68 82.8705 16.7173 82.9345 16.792C83.0092 16.856 83.0465 16.9413 83.0465 17.048V23.688H83.7985C83.9158 23.688 84.0065 23.7253 84.0705 23.8C84.1345 23.864 84.1665 23.9493 84.1665 24.056V26.392C84.1665 26.4987 84.1345 26.584 84.0705 26.648C84.0065 26.7227 83.9158 26.76 83.7985 26.76H83.0465C82.9398 26.76 82.8492 26.7227 82.7745 26.648C82.7105 26.584 82.6785 26.4987 82.6785 26.392V25H76.8865V26.392C76.8865 26.4987 76.8492 26.584 76.7745 26.648C76.7105 26.7227 76.6252 26.76 76.5185 26.76H75.7665ZM77.7505 23.72L81.5585 23.688V17.96H78.6625V19.272C78.6625 20.4027 78.5825 21.3307 78.4225 22.056C78.2625 22.7707 78.0385 23.3253 77.7505 23.72ZM86.2243 28.04C86.1069 28.04 86.0163 28.0027 85.9523 27.928C85.8883 27.864 85.8563 27.7787 85.8563 27.672V27.128C85.8563 27.0213 85.8883 26.9307 85.9523 26.856C86.0163 26.792 86.1069 26.76 86.2243 26.76H86.6403C86.8856 26.76 87.0829 26.712 87.2323 26.616C87.3816 26.52 87.5149 26.3547 87.6323 26.12C87.7603 25.896 87.9096 25.5867 88.0803 25.192L91.5523 16.952C91.5843 16.8667 91.6269 16.8027 91.6803 16.76C91.7443 16.7067 91.8349 16.68 91.9523 16.68H92.6562C92.7523 16.68 92.8323 16.712 92.8963 16.776C92.9603 16.84 92.9923 16.9147 92.9923 17C92.9923 17.0427 92.9869 17.0853 92.9763 17.128C92.9656 17.16 92.9443 17.2133 92.9123 17.288L89.8723 24.488C89.7123 24.872 89.5363 25.272 89.3443 25.688C89.1629 26.104 88.9549 26.488 88.7203 26.84C88.4963 27.2027 88.2296 27.4907 87.9203 27.704C87.6109 27.928 87.2483 28.04 86.8323 28.04H86.2243ZM88.4483 24.76L85.2163 17.288C85.1629 17.16 85.1363 17.0693 85.1363 17.016C85.1469 16.92 85.1843 16.84 85.2483 16.776C85.3123 16.712 85.3869 16.68 85.4723 16.68H86.2243C86.3416 16.68 86.4269 16.7067 86.4803 16.76C86.5443 16.8133 86.5923 16.8773 86.6243 16.952L89.2803 23.304L88.4483 24.76ZM94.9739 25C94.8672 25 94.7765 24.968 94.7019 24.904C94.6379 24.8293 94.6059 24.7387 94.6059 24.632V17.048C94.6059 16.9413 94.6379 16.856 94.7019 16.792C94.7765 16.7173 94.8672 16.68 94.9739 16.68H95.7259C95.8325 16.68 95.9179 16.7173 95.9819 16.792C96.0565 16.856 96.0939 16.9413 96.0939 17.048V20.12H97.5499L99.7099 16.92C99.7632 16.8453 99.8219 16.7867 99.8859 16.744C99.9499 16.7013 100.035 16.68 100.142 16.68H100.974C101.07 16.68 101.15 16.7013 101.214 16.744C101.278 16.7867 101.31 16.8507 101.31 16.936C101.31 16.9573 101.299 16.9893 101.278 17.032C101.267 17.064 101.251 17.096 101.23 17.128L98.8299 20.664L101.55 24.536C101.603 24.6 101.63 24.6693 101.63 24.744C101.63 24.8293 101.598 24.8933 101.534 24.936C101.481 24.9787 101.406 25 101.31 25H100.334C100.238 25 100.158 24.9787 100.094 24.936C100.03 24.8933 99.9712 24.8347 99.9179 24.76L97.5659 21.416H96.0939V24.632C96.0939 24.7387 96.0565 24.8293 95.9819 24.904C95.9179 24.968 95.8325 25 95.7259 25H94.9739ZM105.728 25C105.621 25 105.531 24.968 105.456 24.904C105.392 24.8293 105.36 24.7387 105.36 24.632V17.96H102.576C102.469 17.96 102.379 17.928 102.304 17.864C102.24 17.7893 102.208 17.6987 102.208 17.592V17.048C102.208 16.9413 102.24 16.856 102.304 16.792C102.379 16.7173 102.469 16.68 102.576 16.68H109.616C109.723 16.68 109.808 16.7173 109.872 16.792C109.947 16.856 109.984 16.9413 109.984 17.048V17.592C109.984 17.6987 109.947 17.7893 109.872 17.864C109.808 17.928 109.723 17.96 109.616 17.96H106.832V24.632C106.832 24.7387 106.8 24.8293 106.736 24.904C106.672 24.968 106.581 25 106.464 25H105.728ZM111.74 25C111.633 25 111.542 24.968 111.468 24.904C111.404 24.8293 111.372 24.7387 111.372 24.632V17.048C111.372 16.9413 111.404 16.856 111.468 16.792C111.542 16.7173 111.633 16.68 111.74 16.68H112.508C112.614 16.68 112.7 16.7173 112.764 16.792C112.838 16.856 112.876 16.9413 112.876 17.048V19.4H114.54C115.628 19.4 116.422 19.656 116.924 20.168C117.425 20.68 117.676 21.3733 117.676 22.248C117.676 23.1867 117.398 23.88 116.844 24.328C116.289 24.776 115.457 25 114.348 25H111.74ZM112.86 23.8H114.396C115.046 23.8 115.521 23.688 115.82 23.464C116.118 23.2293 116.268 22.824 116.268 22.248C116.268 21.6933 116.124 21.2827 115.836 21.016C115.548 20.7387 115.068 20.6 114.396 20.6H112.86V23.8ZM119.18 25C119.073 25 118.982 24.968 118.908 24.904C118.844 24.8293 118.812 24.7387 118.812 24.632V17.048C118.812 16.9413 118.844 16.856 118.908 16.792C118.982 16.7173 119.073 16.68 119.18 16.68H119.948C120.054 16.68 120.14 16.7173 120.204 16.792C120.278 16.856 120.316 16.9413 120.316 17.048V24.632C120.316 24.7387 120.278 24.8293 120.204 24.904C120.14 24.968 120.054 25 119.948 25H119.18Z" fill="#606060"/>
<path fill-rule="evenodd" clip-rule="evenodd" d="M144.646 13.6464C144.842 13.4512 145.158 13.4512 145.354 13.6464L151.354 19.6464C151.549 19.8417 151.549 20.1583 151.354 20.3536L145.354 26.3536C145.158 26.5488 144.842 26.5488 144.646 26.3536C144.451 26.1583 144.451 25.8417 144.646 25.6464L150.293 20L144.646 14.3536C144.451 14.1583 144.451 13.8417 144.646 13.6464Z" fill="#606060"/>
</svg>
