<svg width="256" height="45" viewBox="0 0 256 45" fill="none" xmlns="http://www.w3.org/2000/svg">
<path d="M7.002 20C6.882 20 6.774 19.958 6.678 19.874C6.594 19.778 6.552 19.67 6.552 19.55V17.516H0.954C0.822 17.516 0.714 17.474 0.63 17.39C0.546 17.306 0.504 17.198 0.504 17.066V15.356C0.504 15.176 0.57 14.99 0.702 14.798L5.94 7.706C6.108 7.502 6.33 7.4 6.606 7.4H9.234C9.366 7.4 9.474 7.442 9.558 7.526C9.642 7.61 9.684 7.718 9.684 7.85V14.834H11.268C11.412 14.834 11.526 14.882 11.61 14.978C11.694 15.062 11.736 15.164 11.736 15.284V17.066C11.736 17.198 11.694 17.306 11.61 17.39C11.526 17.474 11.418 17.516 11.286 17.516H9.684V19.55C9.684 19.67 9.642 19.778 9.558 19.874C9.474 19.958 9.366 20 9.234 20H7.002ZM6.624 14.96V10.712L3.6 14.96H6.624ZM15.3488 20C15.2408 20 15.1508 19.964 15.0788 19.892C15.0068 19.808 14.9708 19.712 14.9708 19.604C14.9708 19.52 14.9948 19.442 15.0428 19.37L17.5808 15.896C17.4248 15.932 17.2508 15.95 17.0588 15.95C16.3148 15.902 15.6128 15.698 14.9528 15.338C14.2928 14.978 13.7588 14.486 13.3508 13.862C12.9428 13.238 12.7388 12.524 12.7388 11.72C12.7388 10.928 12.9368 10.19 13.3328 9.506C13.7288 8.822 14.3108 8.27 15.0788 7.85C15.8588 7.43 16.7948 7.22 17.8868 7.22C18.9908 7.22 19.9388 7.412 20.7308 7.796C21.5348 8.18 22.1408 8.708 22.5488 9.38C22.9568 10.04 23.1608 10.778 23.1608 11.594C23.1608 12.254 23.0228 12.854 22.7468 13.394C22.4828 13.934 22.0868 14.57 21.5588 15.302C21.5348 15.326 21.4388 15.458 21.2708 15.698L18.3908 19.64C18.2228 19.88 18.0068 20 17.7428 20H15.3488ZM17.9228 13.574C18.4748 13.574 18.9308 13.406 19.2908 13.07C19.6508 12.734 19.8308 12.278 19.8308 11.702C19.8308 11.126 19.6508 10.67 19.2908 10.334C18.9308 9.986 18.4748 9.812 17.9228 9.812C17.3708 9.812 16.9148 9.986 16.5548 10.334C16.2068 10.67 16.0328 11.126 16.0328 11.702C16.0328 12.278 16.2128 12.734 16.5728 13.07C16.9328 13.406 17.3828 13.574 17.9228 13.574ZM23.77 21.35C23.674 21.35 23.59 21.308 23.518 21.224C23.446 21.152 23.416 21.062 23.428 20.954L23.986 17.426C24.01 17.258 24.076 17.114 24.184 16.994C24.292 16.874 24.442 16.814 24.634 16.814H26.74C26.836 16.814 26.914 16.85 26.974 16.922C27.046 16.982 27.082 17.06 27.082 17.156C27.082 17.24 27.07 17.306 27.046 17.354L25.696 20.846C25.624 21.002 25.54 21.122 25.444 21.206C25.348 21.302 25.21 21.35 25.03 21.35H23.77ZM33.6938 20.18C32.5298 20.18 31.5518 20 30.7598 19.64C29.9798 19.28 29.3978 18.836 29.0138 18.308C28.6418 17.768 28.4438 17.228 28.4198 16.688C28.4198 16.58 28.4558 16.49 28.5278 16.418C28.6118 16.346 28.7078 16.31 28.8158 16.31H31.1738C31.3058 16.31 31.4138 16.334 31.4978 16.382C31.5818 16.43 31.6598 16.52 31.7318 16.652C31.9718 17.276 32.6258 17.588 33.6938 17.588C34.3058 17.588 34.7798 17.45 35.1158 17.174C35.4638 16.886 35.6378 16.496 35.6378 16.004C35.6378 15.044 35.0138 14.564 33.7658 14.564H31.7678C31.6478 14.564 31.5398 14.522 31.4438 14.438C31.3598 14.342 31.3178 14.234 31.3178 14.114V13.106C31.3178 12.842 31.4138 12.638 31.6058 12.494L34.5578 9.992H29.5538C29.4338 9.992 29.3258 9.95 29.2298 9.866C29.1458 9.77 29.1038 9.662 29.1038 9.542V7.85C29.1038 7.718 29.1458 7.61 29.2298 7.526C29.3258 7.442 29.4338 7.4 29.5538 7.4H37.8338C37.9658 7.4 38.0738 7.442 38.1578 7.526C38.2538 7.61 38.3018 7.718 38.3018 7.85V9.38C38.3018 9.608 38.2058 9.806 38.0137 9.974L35.2778 12.512L35.4038 12.548C36.5078 12.692 37.3778 13.064 38.0137 13.664C38.6618 14.252 38.9858 15.098 38.9858 16.202C38.9858 17.006 38.7578 17.708 38.3018 18.308C37.8458 18.908 37.2158 19.37 36.4118 19.694C35.6078 20.018 34.7018 20.18 33.6938 20.18ZM42.841 20C42.733 20 42.643 19.964 42.571 19.892C42.499 19.808 42.463 19.712 42.463 19.604C42.463 19.52 42.487 19.442 42.535 19.37L45.073 15.896C44.917 15.932 44.743 15.95 44.551 15.95C43.807 15.902 43.105 15.698 42.445 15.338C41.785 14.978 41.251 14.486 40.843 13.862C40.435 13.238 40.231 12.524 40.231 11.72C40.231 10.928 40.429 10.19 40.825 9.506C41.221 8.822 41.803 8.27 42.571 7.85C43.351 7.43 44.287 7.22 45.379 7.22C46.483 7.22 47.431 7.412 48.223 7.796C49.027 8.18 49.633 8.708 50.041 9.38C50.449 10.04 50.653 10.778 50.653 11.594C50.653 12.254 50.515 12.854 50.239 13.394C49.975 13.934 49.579 14.57 49.051 15.302C49.027 15.326 48.931 15.458 48.763 15.698L45.883 19.64C45.715 19.88 45.499 20 45.235 20H42.841ZM45.415 13.574C45.967 13.574 46.423 13.406 46.783 13.07C47.143 12.734 47.323 12.278 47.323 11.702C47.323 11.126 47.143 10.67 46.783 10.334C46.423 9.986 45.967 9.812 45.415 9.812C44.863 9.812 44.407 9.986 44.047 10.334C43.699 10.67 43.525 11.126 43.525 11.702C43.525 12.278 43.705 12.734 44.065 13.07C44.425 13.406 44.875 13.574 45.415 13.574Z" fill="#414141"/>
<path d="M58.52 20C58.388 20 58.274 19.958 58.178 19.874C58.094 19.79 58.052 19.682 58.052 19.55V17.894H56.72C56.6 17.894 56.492 17.852 56.396 17.768C56.312 17.672 56.27 17.564 56.27 17.444V16.76C56.27 16.628 56.312 16.52 56.396 16.436C56.48 16.352 56.588 16.31 56.72 16.31H58.052V15.392H56.72C56.6 15.392 56.492 15.35 56.396 15.266C56.312 15.17 56.27 15.062 56.27 14.942V13.574C56.27 13.442 56.312 13.334 56.396 13.25C56.492 13.166 56.6 13.124 56.72 13.124H58.052V7.85C58.052 7.718 58.094 7.61 58.178 7.526C58.274 7.442 58.388 7.4 58.52 7.4H63.56C65.096 7.4 66.302 7.754 67.178 8.462C68.054 9.158 68.492 10.19 68.492 11.558C68.492 12.83 68.054 13.79 67.178 14.438C66.314 15.074 65.108 15.392 63.56 15.392H61.418V16.31H63.83C63.962 16.31 64.07 16.352 64.154 16.436C64.238 16.52 64.28 16.628 64.28 16.76V17.444C64.28 17.564 64.238 17.672 64.154 17.768C64.07 17.852 63.962 17.894 63.83 17.894H61.418V19.55C61.418 19.682 61.37 19.79 61.274 19.874C61.19 19.958 61.082 20 60.95 20H58.52ZM63.47 13.124C63.998 13.124 64.406 12.992 64.694 12.728C64.994 12.452 65.144 12.05 65.144 11.522C65.144 11.03 65.006 10.64 64.73 10.352C64.454 10.052 64.034 9.902 63.47 9.902H61.346V13.124H63.47Z" fill="#414141"/>
</svg>
