<svg width="256" height="45" viewBox="0 0 256 45" fill="none" xmlns="http://www.w3.org/2000/svg">
<path d="M4.986 20C4.866 20 4.758 19.958 4.662 19.874C4.578 19.778 4.536 19.67 4.536 19.55V10.982L2.07 12.872C1.986 12.944 1.896 12.98 1.8 12.98C1.668 12.98 1.548 12.908 1.44 12.764L0.378 11.378C0.318 11.282 0.288 11.192 0.288 11.108C0.288 10.94 0.36 10.814 0.504 10.73L4.644 7.526C4.776 7.442 4.92 7.4 5.076 7.4H7.326C7.458 7.4 7.566 7.442 7.65 7.526C7.734 7.61 7.776 7.718 7.776 7.85V19.55C7.776 19.67 7.734 19.778 7.65 19.874C7.566 19.958 7.458 20 7.326 20H4.986ZM14.7073 20.198C13.6273 20.198 12.7033 20.03 11.9353 19.694C11.1673 19.346 10.5793 18.884 10.1713 18.308C9.77527 17.732 9.56527 17.108 9.54127 16.436C9.54127 16.328 9.57727 16.238 9.64927 16.166C9.72127 16.094 9.81127 16.058 9.91927 16.058H12.3313C12.6073 16.058 12.7993 16.172 12.9073 16.4C13.2313 17.204 13.8373 17.606 14.7253 17.606C15.2533 17.606 15.6973 17.444 16.0573 17.12C16.4293 16.784 16.6153 16.322 16.6153 15.734C16.6153 15.206 16.4353 14.774 16.0753 14.438C15.7273 14.102 15.2773 13.934 14.7253 13.934C14.4133 13.934 14.1613 13.976 13.9693 14.06C13.7893 14.132 13.6033 14.24 13.4113 14.384C13.2073 14.54 13.0453 14.618 12.9253 14.618H10.5673C10.4593 14.618 10.3633 14.582 10.2793 14.51C10.2073 14.426 10.1713 14.33 10.1713 14.222L10.8193 7.94C10.8313 7.772 10.8913 7.64 10.9993 7.544C11.1193 7.448 11.2573 7.4 11.4133 7.4H18.6313C18.7633 7.4 18.8713 7.442 18.9553 7.526C19.0513 7.61 19.0993 7.718 19.0993 7.85V9.542C19.0993 9.674 19.0513 9.782 18.9553 9.866C18.8713 9.95 18.7633 9.992 18.6313 9.992H13.4113L13.1773 12.314C13.4773 12.11 13.8073 11.96 14.1673 11.864C14.5273 11.756 14.9953 11.702 15.5713 11.702C16.3273 11.702 17.0413 11.876 17.7133 12.224C18.3853 12.56 18.9193 13.04 19.3153 13.664C19.7233 14.288 19.9273 15.002 19.9273 15.806C19.9273 16.658 19.7173 17.42 19.2973 18.092C18.8773 18.752 18.2713 19.268 17.4793 19.64C16.6993 20.012 15.7753 20.198 14.7073 20.198ZM23.716 20C23.608 20 23.518 19.964 23.446 19.892C23.374 19.808 23.338 19.712 23.338 19.604C23.338 19.52 23.362 19.442 23.41 19.37L25.948 15.896C25.792 15.932 25.618 15.95 25.426 15.95C24.682 15.902 23.98 15.698 23.32 15.338C22.66 14.978 22.126 14.486 21.718 13.862C21.31 13.238 21.106 12.524 21.106 11.72C21.106 10.928 21.304 10.19 21.7 9.506C22.096 8.822 22.678 8.27 23.446 7.85C24.226 7.43 25.162 7.22 26.254 7.22C27.358 7.22 28.306 7.412 29.098 7.796C29.902 8.18 30.508 8.708 30.916 9.38C31.324 10.04 31.528 10.778 31.528 11.594C31.528 12.254 31.39 12.854 31.114 13.394C30.85 13.934 30.454 14.57 29.926 15.302C29.902 15.326 29.806 15.458 29.638 15.698L26.758 19.64C26.59 19.88 26.374 20 26.11 20H23.716ZM26.29 13.574C26.842 13.574 27.298 13.406 27.658 13.07C28.018 12.734 28.198 12.278 28.198 11.702C28.198 11.126 28.018 10.67 27.658 10.334C27.298 9.986 26.842 9.812 26.29 9.812C25.738 9.812 25.282 9.986 24.922 10.334C24.574 10.67 24.4 11.126 24.4 11.702C24.4 12.278 24.58 12.734 24.94 13.07C25.3 13.406 25.75 13.574 26.29 13.574ZM32.1372 21.35C32.0412 21.35 31.9572 21.308 31.8852 21.224C31.8132 21.152 31.7832 21.062 31.7952 20.954L32.3532 17.426C32.3772 17.258 32.4432 17.114 32.5512 16.994C32.6592 16.874 32.8092 16.814 33.0012 16.814H35.1072C35.2032 16.814 35.2812 16.85 35.3412 16.922C35.4132 16.982 35.4492 17.06 35.4492 17.156C35.4492 17.24 35.4372 17.306 35.4132 17.354L34.0632 20.846C33.9912 21.002 33.9072 21.122 33.8112 21.206C33.7152 21.302 33.5772 21.35 33.3972 21.35H32.1372ZM38.6222 20C38.5142 20 38.4242 19.964 38.3522 19.892C38.2802 19.808 38.2442 19.712 38.2442 19.604C38.2442 19.52 38.2682 19.442 38.3162 19.37L40.8542 15.896C40.6982 15.932 40.5242 15.95 40.3322 15.95C39.5882 15.902 38.8862 15.698 38.2262 15.338C37.5662 14.978 37.0322 14.486 36.6242 13.862C36.2162 13.238 36.0122 12.524 36.0122 11.72C36.0122 10.928 36.2102 10.19 36.6062 9.506C37.0022 8.822 37.5842 8.27 38.3522 7.85C39.1322 7.43 40.0682 7.22 41.1602 7.22C42.2642 7.22 43.2122 7.412 44.0042 7.796C44.8082 8.18 45.4142 8.708 45.8222 9.38C46.2302 10.04 46.4342 10.778 46.4342 11.594C46.4342 12.254 46.2962 12.854 46.0202 13.394C45.7562 13.934 45.3602 14.57 44.8322 15.302C44.8082 15.326 44.7122 15.458 44.5442 15.698L41.6642 19.64C41.4962 19.88 41.2802 20 41.0162 20H38.6222ZM41.1962 13.574C41.7482 13.574 42.2042 13.406 42.5642 13.07C42.9242 12.734 43.1042 12.278 43.1042 11.702C43.1042 11.126 42.9242 10.67 42.5642 10.334C42.2042 9.986 41.7482 9.812 41.1962 9.812C40.6442 9.812 40.1882 9.986 39.8282 10.334C39.4802 10.67 39.3062 11.126 39.3062 11.702C39.3062 12.278 39.4862 12.734 39.8462 13.07C40.2062 13.406 40.6562 13.574 41.1962 13.574ZM50.1535 20C50.0455 20 49.9555 19.964 49.8835 19.892C49.8115 19.808 49.7755 19.712 49.7755 19.604C49.7755 19.52 49.7995 19.442 49.8475 19.37L52.3855 15.896C52.2295 15.932 52.0555 15.95 51.8635 15.95C51.1195 15.902 50.4175 15.698 49.7575 15.338C49.0975 14.978 48.5635 14.486 48.1555 13.862C47.7475 13.238 47.5435 12.524 47.5435 11.72C47.5435 10.928 47.7415 10.19 48.1375 9.506C48.5335 8.822 49.1155 8.27 49.8835 7.85C50.6635 7.43 51.5995 7.22 52.6915 7.22C53.7955 7.22 54.7435 7.412 55.5355 7.796C56.3395 8.18 56.9455 8.708 57.3535 9.38C57.7615 10.04 57.9655 10.778 57.9655 11.594C57.9655 12.254 57.8275 12.854 57.5515 13.394C57.2875 13.934 56.8915 14.57 56.3635 15.302C56.3395 15.326 56.2435 15.458 56.0755 15.698L53.1955 19.64C53.0275 19.88 52.8115 20 52.5475 20H50.1535ZM52.7275 13.574C53.2795 13.574 53.7355 13.406 54.0955 13.07C54.4555 12.734 54.6355 12.278 54.6355 11.702C54.6355 11.126 54.4555 10.67 54.0955 10.334C53.7355 9.986 53.2795 9.812 52.7275 9.812C52.1755 9.812 51.7195 9.986 51.3595 10.334C51.0115 10.67 50.8375 11.126 50.8375 11.702C50.8375 12.278 51.0175 12.734 51.3775 13.07C51.7375 13.406 52.1875 13.574 52.7275 13.574Z" fill="#414141"/>
<path d="M65.52 20C65.388 20 65.274 19.958 65.178 19.874C65.094 19.79 65.052 19.682 65.052 19.55V17.894H63.72C63.6 17.894 63.492 17.852 63.396 17.768C63.312 17.672 63.27 17.564 63.27 17.444V16.76C63.27 16.628 63.312 16.52 63.396 16.436C63.48 16.352 63.588 16.31 63.72 16.31H65.052V15.392H63.72C63.6 15.392 63.492 15.35 63.396 15.266C63.312 15.17 63.27 15.062 63.27 14.942V13.574C63.27 13.442 63.312 13.334 63.396 13.25C63.492 13.166 63.6 13.124 63.72 13.124H65.052V7.85C65.052 7.718 65.094 7.61 65.178 7.526C65.274 7.442 65.388 7.4 65.52 7.4H70.56C72.096 7.4 73.302 7.754 74.178 8.462C75.054 9.158 75.492 10.19 75.492 11.558C75.492 12.83 75.054 13.79 74.178 14.438C73.314 15.074 72.108 15.392 70.56 15.392H68.418V16.31H70.83C70.962 16.31 71.07 16.352 71.154 16.436C71.238 16.52 71.28 16.628 71.28 16.76V17.444C71.28 17.564 71.238 17.672 71.154 17.768C71.07 17.852 70.962 17.894 70.83 17.894H68.418V19.55C68.418 19.682 68.37 19.79 68.274 19.874C68.19 19.958 68.082 20 67.95 20H65.52ZM70.47 13.124C70.998 13.124 71.406 12.992 71.694 12.728C71.994 12.452 72.144 12.05 72.144 11.522C72.144 11.03 72.006 10.64 71.73 10.352C71.454 10.052 71.034 9.902 70.47 9.902H68.346V13.124H70.47Z" fill="#414141"/>
</svg>
