<svg width="256" height="45" viewBox="0 0 256 45" fill="none" xmlns="http://www.w3.org/2000/svg">
<path d="M7.002 20C6.882 20 6.774 19.958 6.678 19.874C6.594 19.778 6.552 19.67 6.552 19.55V17.516H0.954C0.822 17.516 0.714 17.474 0.63 17.39C0.546 17.306 0.504 17.198 0.504 17.066V15.356C0.504 15.176 0.57 14.99 0.702 14.798L5.94 7.706C6.108 7.502 6.33 7.4 6.606 7.4H9.234C9.366 7.4 9.474 7.442 9.558 7.526C9.642 7.61 9.684 7.718 9.684 7.85V14.834H11.268C11.412 14.834 11.526 14.882 11.61 14.978C11.694 15.062 11.736 15.164 11.736 15.284V17.066C11.736 17.198 11.694 17.306 11.61 17.39C11.526 17.474 11.418 17.516 11.286 17.516H9.684V19.55C9.684 19.67 9.642 19.778 9.558 19.874C9.474 19.958 9.366 20 9.234 20H7.002ZM6.624 14.96V10.712L3.6 14.96H6.624ZM19.2891 20C19.1691 20 19.0611 19.958 18.9651 19.874C18.8811 19.778 18.8391 19.67 18.8391 19.55V17.516H13.2411C13.1091 17.516 13.0011 17.474 12.9171 17.39C12.8331 17.306 12.7911 17.198 12.7911 17.066V15.356C12.7911 15.176 12.8571 14.99 12.9891 14.798L18.2271 7.706C18.3951 7.502 18.6171 7.4 18.8931 7.4H21.5211C21.6531 7.4 21.7611 7.442 21.8451 7.526C21.9291 7.61 21.9711 7.718 21.9711 7.85V14.834H23.5551C23.6991 14.834 23.8131 14.882 23.8971 14.978C23.9811 15.062 24.0231 15.164 24.0231 15.284V17.066C24.0231 17.198 23.9811 17.306 23.8971 17.39C23.8131 17.474 23.7051 17.516 23.5731 17.516H21.9711V19.55C21.9711 19.67 21.9291 19.778 21.8451 19.874C21.7611 19.958 21.6531 20 21.5211 20H19.2891ZM18.9111 14.96V10.712L15.8871 14.96H18.9111ZM25.3872 21.35C25.2912 21.35 25.2072 21.308 25.1352 21.224C25.0632 21.152 25.0332 21.062 25.0452 20.954L25.6032 17.426C25.6272 17.258 25.6932 17.114 25.8012 16.994C25.9092 16.874 26.0592 16.814 26.2512 16.814H28.3572C28.4532 16.814 28.5312 16.85 28.5912 16.922C28.6632 16.982 28.6992 17.06 28.6992 17.156C28.6992 17.24 28.6872 17.306 28.6632 17.354L27.3132 20.846C27.2412 21.002 27.1572 21.122 27.0612 21.206C26.9652 21.302 26.8272 21.35 26.6472 21.35H25.3872ZM35.2209 20.198C34.1409 20.198 33.2169 20.03 32.4489 19.694C31.6809 19.346 31.0929 18.884 30.6849 18.308C30.2889 17.732 30.0789 17.108 30.0549 16.436C30.0549 16.328 30.0909 16.238 30.1629 16.166C30.2349 16.094 30.3249 16.058 30.4329 16.058H32.8449C33.1209 16.058 33.3129 16.172 33.4209 16.4C33.7449 17.204 34.3509 17.606 35.2389 17.606C35.7669 17.606 36.2109 17.444 36.5709 17.12C36.9429 16.784 37.1289 16.322 37.1289 15.734C37.1289 15.206 36.9489 14.774 36.5889 14.438C36.2409 14.102 35.7909 13.934 35.2389 13.934C34.9269 13.934 34.6749 13.976 34.4829 14.06C34.3029 14.132 34.1169 14.24 33.9249 14.384C33.7209 14.54 33.5589 14.618 33.4389 14.618H31.0809C30.9729 14.618 30.8769 14.582 30.7929 14.51C30.7209 14.426 30.6849 14.33 30.6849 14.222L31.3329 7.94C31.3449 7.772 31.4049 7.64 31.5129 7.544C31.6329 7.448 31.7709 7.4 31.9269 7.4H39.1449C39.2769 7.4 39.3849 7.442 39.4689 7.526C39.5649 7.61 39.6129 7.718 39.6129 7.85V9.542C39.6129 9.674 39.5649 9.782 39.4689 9.866C39.3849 9.95 39.2769 9.992 39.1449 9.992H33.9249L33.6909 12.314C33.9909 12.11 34.3209 11.96 34.6809 11.864C35.0409 11.756 35.5089 11.702 36.0849 11.702C36.8409 11.702 37.5549 11.876 38.2269 12.224C38.8989 12.56 39.4329 13.04 39.8289 13.664C40.2369 14.288 40.4409 15.002 40.4409 15.806C40.4409 16.658 40.2309 17.42 39.8109 18.092C39.3909 18.752 38.7849 19.268 37.9929 19.64C37.2129 20.012 36.2889 20.198 35.2209 20.198ZM47.1997 20.18C45.5437 20.168 44.2897 19.73 43.4377 18.866C42.5857 17.99 42.1237 16.844 42.0517 15.428C42.0277 14.78 42.0157 14.204 42.0157 13.7C42.0157 13.184 42.0277 12.59 42.0517 11.918C42.0997 11.018 42.3157 10.22 42.6997 9.524C43.0957 8.816 43.6717 8.258 44.4277 7.85C45.1837 7.43 46.1077 7.22 47.1997 7.22C48.8197 7.232 50.0677 7.67 50.9437 8.534C51.8197 9.398 52.2937 10.526 52.3657 11.918C52.3897 12.59 52.4017 13.184 52.4017 13.7C52.4017 14.204 52.3897 14.78 52.3657 15.428C52.2817 16.844 51.8137 17.99 50.9617 18.866C50.1097 19.73 48.8557 20.168 47.1997 20.18ZM47.1997 17.57C47.7877 17.57 48.2257 17.378 48.5137 16.994C48.8137 16.598 48.9757 16.046 48.9997 15.338C49.0237 14.99 49.0357 14.432 49.0357 13.664C49.0357 12.896 49.0237 12.35 48.9997 12.026C48.9757 11.342 48.8197 10.802 48.5317 10.406C48.2437 10.01 47.7997 9.806 47.1997 9.794C46.6117 9.806 46.1677 10.01 45.8677 10.406C45.5797 10.802 45.4237 11.342 45.3997 12.026C45.3877 12.35 45.3817 12.896 45.3817 13.664C45.3817 14.432 45.3877 14.99 45.3997 15.338C45.4597 16.826 46.0597 17.57 47.1997 17.57Z" fill="#414141"/>
<path d="M60.52 20C60.388 20 60.274 19.958 60.178 19.874C60.094 19.79 60.052 19.682 60.052 19.55V17.894H58.72C58.6 17.894 58.492 17.852 58.396 17.768C58.312 17.672 58.27 17.564 58.27 17.444V16.76C58.27 16.628 58.312 16.52 58.396 16.436C58.48 16.352 58.588 16.31 58.72 16.31H60.052V15.392H58.72C58.6 15.392 58.492 15.35 58.396 15.266C58.312 15.17 58.27 15.062 58.27 14.942V13.574C58.27 13.442 58.312 13.334 58.396 13.25C58.492 13.166 58.6 13.124 58.72 13.124H60.052V7.85C60.052 7.718 60.094 7.61 60.178 7.526C60.274 7.442 60.388 7.4 60.52 7.4H65.56C67.096 7.4 68.302 7.754 69.178 8.462C70.054 9.158 70.492 10.19 70.492 11.558C70.492 12.83 70.054 13.79 69.178 14.438C68.314 15.074 67.108 15.392 65.56 15.392H63.418V16.31H65.83C65.962 16.31 66.07 16.352 66.154 16.436C66.238 16.52 66.28 16.628 66.28 16.76V17.444C66.28 17.564 66.238 17.672 66.154 17.768C66.07 17.852 65.962 17.894 65.83 17.894H63.418V19.55C63.418 19.682 63.37 19.79 63.274 19.874C63.19 19.958 63.082 20 62.95 20H60.52ZM65.47 13.124C65.998 13.124 66.406 12.992 66.694 12.728C66.994 12.452 67.144 12.05 67.144 11.522C67.144 11.03 67.006 10.64 66.73 10.352C66.454 10.052 66.034 9.902 65.47 9.902H63.346V13.124H65.47Z" fill="#414141"/>
<path d="M4.068 40.12C2.996 40.12 2.18 39.832 1.62 39.256C1.068 38.68 0.772 37.884 0.732 36.868C0.724 36.652 0.72 36.3 0.72 35.812C0.72 35.316 0.724 34.956 0.732 34.732C0.772 33.724 1.072 32.932 1.632 32.356C2.192 31.772 3.004 31.48 4.068 31.48C4.78 31.48 5.384 31.608 5.88 31.864C6.376 32.112 6.752 32.44 7.008 32.848C7.264 33.256 7.404 33.692 7.428 34.156V34.18C7.428 34.244 7.4 34.3 7.344 34.348C7.296 34.388 7.24 34.408 7.176 34.408H6.516C6.356 34.408 6.256 34.316 6.216 34.132C6.08 33.532 5.836 33.112 5.484 32.872C5.132 32.624 4.66 32.5 4.068 32.5C2.692 32.5 1.98 33.264 1.932 34.792C1.924 35.008 1.92 35.34 1.92 35.788C1.92 36.236 1.924 36.576 1.932 36.808C1.98 38.336 2.692 39.1 4.068 39.1C4.66 39.1 5.132 38.98 5.484 38.74C5.844 38.492 6.088 38.068 6.216 37.468C6.24 37.364 6.276 37.292 6.324 37.252C6.372 37.212 6.436 37.192 6.516 37.192H7.176C7.248 37.192 7.308 37.216 7.356 37.264C7.412 37.304 7.436 37.36 7.428 37.432C7.404 37.904 7.264 38.344 7.008 38.752C6.752 39.16 6.376 39.492 5.88 39.748C5.384 39.996 4.78 40.12 4.068 40.12ZM17.0296 39.652C17.0696 39.7 17.0896 39.752 17.0896 39.808C17.0896 39.864 17.0656 39.912 17.0176 39.952C16.9776 39.984 16.9216 40 16.8496 40H16.1176C15.9896 40 15.8856 39.94 15.8056 39.82L14.0656 37.312H12.9376V39.724C12.9376 39.804 12.9096 39.872 12.8536 39.928C12.8056 39.976 12.7416 40 12.6616 40H12.0976C12.0176 40 11.9496 39.976 11.8936 39.928C11.8456 39.872 11.8216 39.804 11.8216 39.724V34.036C11.8216 33.956 11.8456 33.892 11.8936 33.844C11.9496 33.788 12.0176 33.76 12.0976 33.76H12.6616C12.7416 33.76 12.8056 33.788 12.8536 33.844C12.9096 33.892 12.9376 33.956 12.9376 34.036V36.34H14.0416L15.6496 33.94C15.7456 33.82 15.8536 33.76 15.9736 33.76H16.5976C16.6696 33.76 16.7296 33.78 16.7776 33.82C16.8256 33.852 16.8496 33.896 16.8496 33.952C16.8496 33.992 16.8296 34.04 16.7896 34.096L15.0016 36.748L17.0296 39.652ZM19.9952 40.12C19.6032 40.12 19.2392 40.04 18.9032 39.88C18.5672 39.72 18.2992 39.504 18.0992 39.232C17.9072 38.952 17.8112 38.644 17.8112 38.308C17.8112 37.78 18.0272 37.348 18.4592 37.012C18.8992 36.668 19.4912 36.444 20.2352 36.34L22.0232 36.088V35.74C22.0232 34.924 21.5552 34.516 20.6192 34.516C20.2672 34.516 19.9792 34.592 19.7552 34.744C19.5312 34.888 19.3632 35.06 19.2512 35.26C19.2272 35.332 19.1952 35.384 19.1552 35.416C19.1232 35.448 19.0752 35.464 19.0112 35.464H18.4952C18.4232 35.464 18.3592 35.44 18.3032 35.392C18.2552 35.336 18.2312 35.272 18.2312 35.2C18.2392 35.008 18.3272 34.792 18.4952 34.552C18.6712 34.304 18.9392 34.092 19.2992 33.916C19.6592 33.732 20.1032 33.64 20.6312 33.64C21.5272 33.64 22.1712 33.852 22.5632 34.276C22.9552 34.692 23.1512 35.212 23.1512 35.836V39.724C23.1512 39.804 23.1232 39.872 23.0672 39.928C23.0192 39.976 22.9552 40 22.8752 40H22.3232C22.2432 40 22.1752 39.976 22.1192 39.928C22.0712 39.872 22.0472 39.804 22.0472 39.724V39.208C21.8712 39.464 21.6152 39.68 21.2792 39.856C20.9432 40.032 20.5152 40.12 19.9952 40.12ZM20.2472 39.22C20.7672 39.22 21.1912 39.052 21.5192 38.716C21.8552 38.372 22.0232 37.88 22.0232 37.24V36.904L20.6312 37.108C20.0632 37.188 19.6352 37.324 19.3472 37.516C19.0592 37.7 18.9152 37.936 18.9152 38.224C18.9152 38.544 19.0472 38.792 19.3112 38.968C19.5752 39.136 19.8872 39.22 20.2472 39.22ZM25.1643 42.28C25.0843 42.28 25.0163 42.252 24.9603 42.196C24.9123 42.148 24.8883 42.084 24.8883 42.004V34.036C24.8883 33.956 24.9123 33.892 24.9603 33.844C25.0163 33.788 25.0843 33.76 25.1643 33.76H25.7163C25.7963 33.76 25.8603 33.788 25.9083 33.844C25.9643 33.892 25.9923 33.956 25.9923 34.036V34.564C26.4403 33.948 27.0963 33.64 27.9603 33.64C28.8003 33.64 29.4283 33.904 29.8443 34.432C30.2683 34.96 30.4963 35.64 30.5283 36.472C30.5363 36.56 30.5403 36.696 30.5403 36.88C30.5403 37.064 30.5363 37.2 30.5283 37.288C30.4963 38.112 30.2683 38.792 29.8443 39.328C29.4203 39.856 28.7923 40.12 27.9603 40.12C27.1283 40.12 26.4803 39.82 26.0163 39.22V42.004C26.0163 42.084 25.9923 42.148 25.9443 42.196C25.8963 42.252 25.8323 42.28 25.7523 42.28H25.1643ZM27.7083 39.148C28.2763 39.148 28.6883 38.972 28.9443 38.62C29.2083 38.268 29.3523 37.804 29.3763 37.228C29.3843 37.148 29.3883 37.032 29.3883 36.88C29.3883 35.368 28.8283 34.612 27.7083 34.612C27.1563 34.612 26.7403 34.796 26.4603 35.164C26.1883 35.524 26.0403 35.956 26.0163 36.46L26.0043 36.916L26.0163 37.384C26.0323 37.856 26.1843 38.268 26.4723 38.62C26.7603 38.972 27.1723 39.148 27.7083 39.148ZM33.9327 40C33.8527 40 33.7847 39.976 33.7287 39.928C33.6807 39.872 33.6567 39.804 33.6567 39.724V34.72H31.5687C31.4887 34.72 31.4207 34.696 31.3647 34.648C31.3167 34.592 31.2927 34.524 31.2927 34.444V34.036C31.2927 33.956 31.3167 33.892 31.3647 33.844C31.4207 33.788 31.4887 33.76 31.5687 33.76H36.8487C36.9287 33.76 36.9927 33.788 37.0407 33.844C37.0967 33.892 37.1247 33.956 37.1247 34.036V34.444C37.1247 34.524 37.0967 34.592 37.0407 34.648C36.9927 34.696 36.9287 34.72 36.8487 34.72H34.7607V39.724C34.7607 39.804 34.7367 39.872 34.6887 39.928C34.6407 39.976 34.5767 40 34.4967 40H33.9327ZM40.7213 40.12C39.8413 40.12 39.1573 39.872 38.6693 39.376C38.1893 38.88 37.9333 38.22 37.9013 37.396L37.8893 36.88L37.9013 36.364C37.9333 35.548 38.1933 34.892 38.6813 34.396C39.1693 33.892 39.8493 33.64 40.7213 33.64C41.5933 33.64 42.2733 33.892 42.7613 34.396C43.2493 34.892 43.5093 35.548 43.5413 36.364C43.5493 36.452 43.5533 36.624 43.5533 36.88C43.5533 37.136 43.5493 37.308 43.5413 37.396C43.5093 38.22 43.2493 38.88 42.7613 39.376C42.2813 39.872 41.6013 40.12 40.7213 40.12ZM40.7213 39.196C41.2253 39.196 41.6213 39.036 41.9093 38.716C42.2053 38.396 42.3653 37.936 42.3893 37.336C42.3973 37.256 42.4013 37.104 42.4013 36.88C42.4013 36.656 42.3973 36.504 42.3893 36.424C42.3653 35.824 42.2053 35.364 41.9093 35.044C41.6213 34.724 41.2253 34.564 40.7213 34.564C40.2173 34.564 39.8173 34.724 39.5213 35.044C39.2253 35.364 39.0693 35.824 39.0533 36.424L39.0413 36.88L39.0533 37.336C39.0693 37.936 39.2253 38.396 39.5213 38.716C39.8173 39.036 40.2173 39.196 40.7213 39.196ZM50.36 33.76C50.424 33.76 50.48 33.784 50.528 33.832C50.584 33.88 50.612 33.936 50.612 34V39.724C50.612 39.804 50.584 39.872 50.528 39.928C50.48 39.976 50.416 40 50.336 40H49.772C49.692 40 49.624 39.976 49.568 39.928C49.52 39.872 49.496 39.804 49.496 39.724V35.368L46.172 39.82C46.084 39.94 45.98 40 45.86 40H45.32C45.248 40 45.184 39.976 45.128 39.928C45.08 39.872 45.056 39.812 45.056 39.748V34.036C45.056 33.956 45.08 33.892 45.128 33.844C45.184 33.788 45.252 33.76 45.332 33.76H45.908C45.988 33.76 46.052 33.788 46.1 33.844C46.156 33.892 46.184 33.956 46.184 34.036V38.368L49.496 33.94C49.584 33.82 49.688 33.76 49.808 33.76H50.36ZM47.864 32.932C47.224 32.932 46.764 32.792 46.484 32.512C46.204 32.232 46.064 31.872 46.064 31.432C46.064 31.368 46.084 31.316 46.124 31.276C46.164 31.228 46.22 31.204 46.292 31.204H46.7C46.772 31.204 46.828 31.228 46.868 31.276C46.908 31.316 46.928 31.368 46.928 31.432C46.928 31.936 47.24 32.188 47.864 32.188C48.488 32.188 48.8 31.936 48.8 31.432C48.8 31.368 48.82 31.316 48.86 31.276C48.9 31.228 48.956 31.204 49.028 31.204H49.448C49.52 31.204 49.576 31.228 49.616 31.276C49.656 31.316 49.676 31.368 49.676 31.432C49.676 31.864 49.532 32.224 49.244 32.512C48.964 32.792 48.504 32.932 47.864 32.932Z" fill="#BFBFBF"/>
<path d="M201.672 20.16C200.861 20.16 200.163 20.016 199.576 19.728C198.989 19.44 198.536 19.0613 198.216 18.592C197.907 18.1227 197.741 17.6213 197.72 17.088V17.056C197.72 16.9707 197.752 16.9013 197.816 16.848C197.88 16.7947 197.955 16.768 198.04 16.768H198.904C199.128 16.768 199.272 16.8853 199.336 17.12C199.485 17.6853 199.773 18.1067 200.2 18.384C200.627 18.6613 201.117 18.8 201.672 18.8C202.387 18.8 202.979 18.5867 203.448 18.16C203.928 17.7227 204.168 17.12 204.168 16.352C204.168 15.6587 203.928 15.0987 203.448 14.672C202.979 14.2453 202.387 14.032 201.672 14.032C201.288 14.032 200.979 14.0853 200.744 14.192C200.509 14.288 200.275 14.4267 200.04 14.608C199.912 14.704 199.8 14.7787 199.704 14.832C199.619 14.8747 199.523 14.896 199.416 14.896H198.584C198.488 14.896 198.403 14.864 198.328 14.8C198.253 14.7253 198.221 14.64 198.232 14.544L198.744 9.2C198.755 9.072 198.792 8.976 198.856 8.912C198.931 8.83733 199.027 8.8 199.144 8.8H204.728C204.835 8.8 204.92 8.83733 204.984 8.912C205.059 8.976 205.096 9.06133 205.096 9.168V9.792C205.096 9.89867 205.059 9.98933 204.984 10.064C204.92 10.128 204.835 10.16 204.728 10.16H200.12L199.816 13.312C200.392 12.9493 201.085 12.768 201.896 12.768C202.6 12.768 203.245 12.912 203.832 13.2C204.429 13.488 204.899 13.904 205.24 14.448C205.592 14.992 205.768 15.632 205.768 16.368C205.768 17.1573 205.592 17.84 205.24 18.416C204.899 18.9813 204.419 19.4133 203.8 19.712C203.181 20.0107 202.472 20.16 201.672 20.16ZM211.572 20.16C210.196 20.16 209.188 19.76 208.548 18.96C207.908 18.16 207.567 17.1093 207.524 15.808C207.513 15.52 207.508 15.056 207.508 14.416C207.508 13.7547 207.513 13.2747 207.524 12.976C207.556 11.696 207.897 10.656 208.548 9.856C209.199 9.04533 210.207 8.64 211.572 8.64C212.948 8.64 213.961 9.04533 214.612 9.856C215.263 10.656 215.604 11.696 215.636 12.976C215.657 13.5733 215.668 14.0533 215.668 14.416C215.668 14.768 215.657 15.232 215.636 15.808C215.593 17.1093 215.252 18.16 214.612 18.96C213.972 19.76 212.959 20.16 211.572 20.16ZM211.572 18.784C212.372 18.784 212.975 18.5173 213.38 17.984C213.796 17.4507 214.015 16.6987 214.036 15.728C214.057 15.1093 214.068 14.6613 214.068 14.384C214.068 14.0853 214.057 13.648 214.036 13.072C214.015 12.112 213.801 11.36 213.396 10.816C212.991 10.272 212.383 10 211.572 10C210.772 10 210.164 10.272 209.748 10.816C209.343 11.36 209.129 12.112 209.108 13.072L209.092 14.384L209.108 15.728C209.129 16.6987 209.343 17.4507 209.748 17.984C210.164 18.5173 210.772 18.784 211.572 18.784ZM217.494 21.2C217.409 21.2 217.339 21.168 217.286 21.104C217.243 21.04 217.227 20.96 217.238 20.864L217.606 18.576C217.649 18.2667 217.798 18.112 218.054 18.112H219.126C219.201 18.112 219.259 18.1387 219.302 18.192C219.355 18.2453 219.382 18.3093 219.382 18.384C219.382 18.4373 219.366 18.5227 219.334 18.64L218.486 20.832C218.433 20.96 218.374 21.0507 218.31 21.104C218.246 21.168 218.15 21.2 218.022 21.2H217.494ZM225.078 20.16C224.268 20.16 223.569 20.016 222.982 19.728C222.396 19.44 221.942 19.0613 221.622 18.592C221.313 18.1227 221.148 17.6213 221.126 17.088V17.056C221.126 16.9707 221.158 16.9013 221.222 16.848C221.286 16.7947 221.361 16.768 221.446 16.768H222.31C222.534 16.768 222.678 16.8853 222.742 17.12C222.892 17.6853 223.18 18.1067 223.606 18.384C224.033 18.6613 224.524 18.8 225.078 18.8C225.793 18.8 226.385 18.5867 226.854 18.16C227.334 17.7227 227.574 17.12 227.574 16.352C227.574 15.6587 227.334 15.0987 226.854 14.672C226.385 14.2453 225.793 14.032 225.078 14.032C224.694 14.032 224.385 14.0853 224.15 14.192C223.916 14.288 223.681 14.4267 223.446 14.608C223.318 14.704 223.206 14.7787 223.11 14.832C223.025 14.8747 222.929 14.896 222.822 14.896H221.99C221.894 14.896 221.809 14.864 221.734 14.8C221.66 14.7253 221.628 14.64 221.638 14.544L222.15 9.2C222.161 9.072 222.198 8.976 222.262 8.912C222.337 8.83733 222.433 8.8 222.55 8.8H228.134C228.241 8.8 228.326 8.83733 228.39 8.912C228.465 8.976 228.502 9.06133 228.502 9.168V9.792C228.502 9.89867 228.465 9.98933 228.39 10.064C228.326 10.128 228.241 10.16 228.134 10.16H223.526L223.222 13.312C223.798 12.9493 224.492 12.768 225.302 12.768C226.006 12.768 226.652 12.912 227.238 13.2C227.836 13.488 228.305 13.904 228.646 14.448C228.998 14.992 229.174 15.632 229.174 16.368C229.174 17.1573 228.998 17.84 228.646 18.416C228.305 18.9813 227.825 19.4133 227.206 19.712C226.588 20.0107 225.878 20.16 225.078 20.16ZM234.978 20.16C233.602 20.16 232.594 19.76 231.954 18.96C231.314 18.16 230.973 17.1093 230.93 15.808C230.92 15.52 230.914 15.056 230.914 14.416C230.914 13.7547 230.92 13.2747 230.93 12.976C230.962 11.696 231.304 10.656 231.954 9.856C232.605 9.04533 233.613 8.64 234.978 8.64C236.354 8.64 237.368 9.04533 238.018 9.856C238.669 10.656 239.01 11.696 239.042 12.976C239.064 13.5733 239.074 14.0533 239.074 14.416C239.074 14.768 239.064 15.232 239.042 15.808C239 17.1093 238.658 18.16 238.018 18.96C237.378 19.76 236.365 20.16 234.978 20.16ZM234.978 18.784C235.778 18.784 236.381 18.5173 236.786 17.984C237.202 17.4507 237.421 16.6987 237.442 15.728C237.464 15.1093 237.474 14.6613 237.474 14.384C237.474 14.0853 237.464 13.648 237.442 13.072C237.421 12.112 237.208 11.36 236.802 10.816C236.397 10.272 235.789 10 234.978 10C234.178 10 233.57 10.272 233.154 10.816C232.749 11.36 232.536 12.112 232.514 13.072L232.498 14.384L232.514 15.728C232.536 16.6987 232.749 17.4507 233.154 17.984C233.57 18.5173 234.178 18.784 234.978 18.784Z" fill="#606060"/>
<path d="M247.208 20C247.101 20 247.011 19.968 246.936 19.904C246.872 19.8293 246.84 19.7387 246.84 19.632V17.584H245.608C245.501 17.584 245.411 17.552 245.336 17.488C245.272 17.4133 245.24 17.3227 245.24 17.216V16.848C245.24 16.7413 245.272 16.656 245.336 16.592C245.411 16.5173 245.501 16.48 245.608 16.48H246.84V15.568H245.608C245.501 15.568 245.411 15.536 245.336 15.472C245.272 15.3973 245.24 15.3067 245.24 15.2V14.656C245.24 14.5493 245.272 14.464 245.336 14.4C245.411 14.3253 245.501 14.288 245.608 14.288H246.84V9.184C246.84 9.06667 246.872 8.976 246.936 8.912C247.011 8.83733 247.101 8.8 247.208 8.8H251.272C252.477 8.8 253.427 9.09333 254.12 9.68C254.813 10.2667 255.16 11.1147 255.16 12.224C255.16 13.312 254.813 14.144 254.12 14.72C253.437 15.2853 252.488 15.568 251.272 15.568H248.44V16.48H251.528C251.635 16.48 251.72 16.5173 251.784 16.592C251.859 16.656 251.896 16.7413 251.896 16.848V17.216C251.896 17.3227 251.859 17.4133 251.784 17.488C251.72 17.552 251.635 17.584 251.528 17.584H248.44V19.632C248.44 19.7387 248.403 19.8293 248.328 19.904C248.253 19.968 248.163 20 248.056 20H247.208ZM251.192 14.288C251.971 14.288 252.557 14.112 252.952 13.76C253.357 13.408 253.56 12.896 253.56 12.224C253.56 11.552 253.363 11.04 252.968 10.688C252.573 10.3253 251.981 10.144 251.192 10.144H248.424V14.288H251.192Z" fill="#606060"/>
<path d="M209.068 40.12C208.02 40.12 207.208 39.848 206.632 39.304C206.064 38.752 205.764 37.924 205.732 36.82C205.724 36.58 205.72 36.24 205.72 35.8C205.72 35.36 205.724 35.024 205.732 34.792C205.764 33.712 206.076 32.892 206.668 32.332C207.26 31.764 208.06 31.48 209.068 31.48C210.068 31.48 210.864 31.764 211.456 32.332C212.048 32.892 212.36 33.712 212.392 34.792C212.408 35.256 212.416 35.592 212.416 35.8C212.416 36 212.408 36.34 212.392 36.82C212.36 37.924 212.056 38.752 211.48 39.304C210.912 39.848 210.108 40.12 209.068 40.12ZM209.068 39.1C209.7 39.1 210.204 38.908 210.58 38.524C210.956 38.14 211.16 37.552 211.192 36.76C211.208 36.28 211.216 35.96 211.216 35.8C211.216 35.624 211.208 35.304 211.192 34.84C211.16 34.048 210.952 33.46 210.568 33.076C210.192 32.692 209.692 32.5 209.068 32.5C208.436 32.5 207.928 32.692 207.544 33.076C207.168 33.46 206.964 34.048 206.932 34.84C206.924 35.072 206.92 35.392 206.92 35.8C206.92 36.2 206.924 36.52 206.932 36.76C206.964 37.552 207.168 38.14 207.544 38.524C207.928 38.908 208.436 39.1 209.068 39.1ZM219.469 36.736C219.477 36.816 219.481 36.944 219.481 37.12C219.481 37.272 219.477 37.38 219.469 37.444C219.437 38.252 219.177 38.9 218.689 39.388C218.209 39.876 217.529 40.12 216.649 40.12C215.745 40.12 215.057 39.864 214.585 39.352C214.113 38.84 213.861 38.136 213.829 37.24L213.817 36.52L213.829 35.8C213.837 34.656 213.989 33.8 214.285 33.232C214.589 32.656 215.017 32.244 215.569 31.996C216.129 31.74 217.033 31.448 218.281 31.12L218.569 31.048L218.629 31.036C218.693 31.036 218.749 31.06 218.797 31.108C218.853 31.148 218.885 31.196 218.893 31.252L218.989 31.744L219.001 31.816C219.001 31.872 218.981 31.92 218.941 31.96C218.909 32 218.861 32.028 218.797 32.044L218.197 32.188C217.277 32.412 216.617 32.604 216.217 32.764C215.817 32.924 215.505 33.176 215.281 33.52C215.065 33.856 214.945 34.36 214.921 35.032C215.113 34.744 215.385 34.512 215.737 34.336C216.089 34.152 216.461 34.06 216.853 34.06C217.661 34.06 218.289 34.308 218.737 34.804C219.193 35.292 219.437 35.936 219.469 36.736ZM218.317 37.396C218.325 37.34 218.329 37.248 218.329 37.12C218.329 36.976 218.325 36.868 218.317 36.796C218.301 36.212 218.149 35.76 217.861 35.44C217.581 35.112 217.213 34.948 216.757 34.948C216.245 34.948 215.825 35.112 215.497 35.44C215.177 35.76 215.005 36.212 214.981 36.796L214.969 37.12L214.981 37.396C215.005 37.988 215.165 38.444 215.461 38.764C215.757 39.076 216.153 39.232 216.649 39.232C217.153 39.232 217.553 39.076 217.849 38.764C218.145 38.444 218.301 37.988 218.317 37.396ZM221.258 40C221.178 40 221.11 39.976 221.054 39.928C221.006 39.872 220.982 39.804 220.982 39.724V34.036C220.982 33.956 221.006 33.892 221.054 33.844C221.11 33.788 221.178 33.76 221.258 33.76H221.834C221.914 33.76 221.978 33.788 222.026 33.844C222.082 33.892 222.11 33.956 222.11 34.036V35.8H223.358C224.15 35.8 224.738 35.988 225.122 36.364C225.514 36.732 225.71 37.256 225.71 37.936C225.71 38.64 225.502 39.16 225.086 39.496C224.678 39.832 224.054 40 223.214 40H221.258ZM226.838 40C226.758 40 226.69 39.976 226.634 39.928C226.586 39.872 226.562 39.804 226.562 39.724V34.036C226.562 33.956 226.586 33.892 226.634 33.844C226.69 33.788 226.758 33.76 226.838 33.76H227.414C227.494 33.76 227.558 33.788 227.606 33.844C227.662 33.892 227.69 33.956 227.69 34.036V39.724C227.69 39.804 227.662 39.872 227.606 39.928C227.558 39.976 227.494 40 227.414 40H226.838ZM223.25 39.1C223.746 39.1 224.102 39.012 224.318 38.836C224.542 38.66 224.654 38.36 224.654 37.936C224.654 37.512 224.542 37.2 224.318 37C224.102 36.8 223.746 36.7 223.25 36.7H222.098V39.1H223.25ZM233.414 40C233.334 40 233.266 39.976 233.21 39.928C233.162 39.872 233.138 39.804 233.138 39.724V37.468C232.73 37.852 232.118 38.044 231.302 38.044C230.574 38.044 230.022 37.884 229.646 37.564C229.27 37.244 229.082 36.744 229.082 36.064V34.036C229.082 33.956 229.106 33.892 229.154 33.844C229.21 33.788 229.278 33.76 229.358 33.76H229.946C230.026 33.76 230.09 33.788 230.138 33.844C230.194 33.892 230.222 33.956 230.222 34.036V35.992C230.222 36.352 230.326 36.616 230.534 36.784C230.742 36.944 231.07 37.024 231.518 37.024C232.038 37.024 232.438 36.96 232.718 36.832C232.998 36.704 233.138 36.488 233.138 36.184V34.036C233.138 33.956 233.162 33.892 233.21 33.844C233.266 33.788 233.334 33.76 233.414 33.76H234.014C234.094 33.76 234.158 33.788 234.206 33.844C234.262 33.892 234.29 33.956 234.29 34.036V39.724C234.29 39.804 234.262 39.872 234.206 39.928C234.158 39.976 234.094 40 234.014 40H233.414ZM236.352 40C236.272 40 236.204 39.976 236.148 39.928C236.1 39.872 236.076 39.804 236.076 39.724V34.036C236.076 33.956 236.1 33.892 236.148 33.844C236.204 33.788 236.272 33.76 236.352 33.76H236.928C237.008 33.76 237.072 33.788 237.12 33.844C237.176 33.892 237.204 33.956 237.204 34.036V36.34H240.468V34.036C240.468 33.956 240.492 33.892 240.54 33.844C240.596 33.788 240.664 33.76 240.744 33.76H241.308C241.388 33.76 241.452 33.788 241.5 33.844C241.556 33.892 241.584 33.956 241.584 34.036V39.724C241.584 39.804 241.556 39.872 241.5 39.928C241.452 39.976 241.388 40 241.308 40H240.744C240.664 40 240.596 39.976 240.54 39.928C240.492 39.872 240.468 39.804 240.468 39.724V37.3H237.204V39.724C237.204 39.804 237.176 39.872 237.12 39.928C237.072 39.976 237.008 40 236.928 40H236.352ZM245.128 40.12C244.736 40.12 244.372 40.04 244.036 39.88C243.7 39.72 243.432 39.504 243.232 39.232C243.04 38.952 242.944 38.644 242.944 38.308C242.944 37.78 243.16 37.348 243.592 37.012C244.032 36.668 244.624 36.444 245.368 36.34L247.156 36.088V35.74C247.156 34.924 246.688 34.516 245.752 34.516C245.4 34.516 245.112 34.592 244.888 34.744C244.664 34.888 244.496 35.06 244.384 35.26C244.36 35.332 244.328 35.384 244.288 35.416C244.256 35.448 244.208 35.464 244.144 35.464H243.628C243.556 35.464 243.492 35.44 243.436 35.392C243.388 35.336 243.364 35.272 243.364 35.2C243.372 35.008 243.46 34.792 243.628 34.552C243.804 34.304 244.072 34.092 244.432 33.916C244.792 33.732 245.236 33.64 245.764 33.64C246.66 33.64 247.304 33.852 247.696 34.276C248.088 34.692 248.284 35.212 248.284 35.836V39.724C248.284 39.804 248.256 39.872 248.2 39.928C248.152 39.976 248.088 40 248.008 40H247.456C247.376 40 247.308 39.976 247.252 39.928C247.204 39.872 247.18 39.804 247.18 39.724V39.208C247.004 39.464 246.748 39.68 246.412 39.856C246.076 40.032 245.648 40.12 245.128 40.12ZM245.38 39.22C245.9 39.22 246.324 39.052 246.652 38.716C246.988 38.372 247.156 37.88 247.156 37.24V36.904L245.764 37.108C245.196 37.188 244.768 37.324 244.48 37.516C244.192 37.7 244.048 37.936 244.048 38.224C244.048 38.544 244.18 38.792 244.444 38.968C244.708 39.136 245.02 39.22 245.38 39.22ZM254.473 33.76C254.553 33.76 254.617 33.788 254.665 33.844C254.721 33.892 254.749 33.956 254.749 34.036V39.724C254.749 39.804 254.721 39.872 254.665 39.928C254.617 39.976 254.553 40 254.473 40H253.897C253.817 40 253.749 39.976 253.693 39.928C253.645 39.872 253.621 39.804 253.621 39.724V37.768H252.337L250.981 39.82C250.949 39.868 250.905 39.912 250.849 39.952C250.793 39.984 250.733 40 250.669 40H250.093C250.021 40 249.961 39.976 249.913 39.928C249.865 39.88 249.841 39.824 249.841 39.76C249.841 39.68 249.869 39.608 249.925 39.544L251.269 37.564C250.853 37.42 250.541 37.192 250.333 36.88C250.125 36.56 250.021 36.176 250.021 35.728C250.021 35.056 250.217 34.56 250.609 34.24C251.009 33.92 251.609 33.76 252.409 33.76H254.473ZM253.633 34.66H252.373C251.917 34.66 251.585 34.74 251.377 34.9C251.169 35.06 251.065 35.336 251.065 35.728C251.065 36.072 251.165 36.348 251.365 36.556C251.573 36.764 251.877 36.868 252.277 36.868H253.633V34.66Z" fill="#BFBFBF"/>
</svg>
