<svg width="256" height="45" viewBox="0 0 256 45" fill="none" xmlns="http://www.w3.org/2000/svg">
<path d="M5.76 20.198C4.68 20.198 3.756 20.03 2.988 19.694C2.22 19.346 1.632 18.884 1.224 18.308C0.828 17.732 0.618 17.108 0.594 16.436C0.594 16.328 0.63 16.238 0.702 16.166C0.774 16.094 0.864 16.058 0.972 16.058H3.384C3.66 16.058 3.852 16.172 3.96 16.4C4.284 17.204 4.89 17.606 5.778 17.606C6.306 17.606 6.75 17.444 7.11 17.12C7.482 16.784 7.668 16.322 7.668 15.734C7.668 15.206 7.488 14.774 7.128 14.438C6.78 14.102 6.33 13.934 5.778 13.934C5.466 13.934 5.214 13.976 5.022 14.06C4.842 14.132 4.656 14.24 4.464 14.384C4.26 14.54 4.098 14.618 3.978 14.618H1.62C1.512 14.618 1.416 14.582 1.332 14.51C1.26 14.426 1.224 14.33 1.224 14.222L1.872 7.94C1.884 7.772 1.944 7.64 2.052 7.544C2.172 7.448 2.31 7.4 2.466 7.4H9.684C9.816 7.4 9.924 7.442 10.008 7.526C10.104 7.61 10.152 7.718 10.152 7.85V9.542C10.152 9.674 10.104 9.782 10.008 9.866C9.924 9.95 9.816 9.992 9.684 9.992H4.464L4.23 12.314C4.53 12.11 4.86 11.96 5.22 11.864C5.58 11.756 6.048 11.702 6.624 11.702C7.38 11.702 8.094 11.876 8.766 12.224C9.438 12.56 9.972 13.04 10.368 13.664C10.776 14.288 10.98 15.002 10.98 15.806C10.98 16.658 10.77 17.42 10.35 18.092C9.93 18.752 9.324 19.268 8.532 19.64C7.752 20.012 6.828 20.198 5.76 20.198ZM14.7687 20C14.6607 20 14.5707 19.964 14.4987 19.892C14.4267 19.808 14.3907 19.712 14.3907 19.604C14.3907 19.52 14.4147 19.442 14.4627 19.37L17.0007 15.896C16.8447 15.932 16.6707 15.95 16.4787 15.95C15.7347 15.902 15.0327 15.698 14.3727 15.338C13.7127 14.978 13.1787 14.486 12.7707 13.862C12.3627 13.238 12.1587 12.524 12.1587 11.72C12.1587 10.928 12.3567 10.19 12.7527 9.506C13.1487 8.822 13.7307 8.27 14.4987 7.85C15.2787 7.43 16.2147 7.22 17.3067 7.22C18.4107 7.22 19.3587 7.412 20.1507 7.796C20.9547 8.18 21.5607 8.708 21.9687 9.38C22.3767 10.04 22.5807 10.778 22.5807 11.594C22.5807 12.254 22.4427 12.854 22.1667 13.394C21.9027 13.934 21.5067 14.57 20.9787 15.302C20.9547 15.326 20.8587 15.458 20.6907 15.698L17.8107 19.64C17.6427 19.88 17.4267 20 17.1627 20H14.7687ZM17.3427 13.574C17.8947 13.574 18.3507 13.406 18.7107 13.07C19.0707 12.734 19.2507 12.278 19.2507 11.702C19.2507 11.126 19.0707 10.67 18.7107 10.334C18.3507 9.986 17.8947 9.812 17.3427 9.812C16.7907 9.812 16.3347 9.986 15.9747 10.334C15.6267 10.67 15.4527 11.126 15.4527 11.702C15.4527 12.278 15.6327 12.734 15.9927 13.07C16.3527 13.406 16.8027 13.574 17.3427 13.574ZM26.3 20C26.192 20 26.102 19.964 26.03 19.892C25.958 19.808 25.922 19.712 25.922 19.604C25.922 19.52 25.946 19.442 25.994 19.37L28.532 15.896C28.376 15.932 28.202 15.95 28.01 15.95C27.266 15.902 26.564 15.698 25.904 15.338C25.244 14.978 24.71 14.486 24.302 13.862C23.894 13.238 23.69 12.524 23.69 11.72C23.69 10.928 23.888 10.19 24.284 9.506C24.68 8.822 25.262 8.27 26.03 7.85C26.81 7.43 27.746 7.22 28.838 7.22C29.942 7.22 30.89 7.412 31.682 7.796C32.486 8.18 33.092 8.708 33.5 9.38C33.908 10.04 34.112 10.778 34.112 11.594C34.112 12.254 33.974 12.854 33.698 13.394C33.434 13.934 33.038 14.57 32.51 15.302C32.486 15.326 32.39 15.458 32.222 15.698L29.342 19.64C29.174 19.88 28.958 20 28.694 20H26.3ZM28.874 13.574C29.426 13.574 29.882 13.406 30.242 13.07C30.602 12.734 30.782 12.278 30.782 11.702C30.782 11.126 30.602 10.67 30.242 10.334C29.882 9.986 29.426 9.812 28.874 9.812C28.322 9.812 27.866 9.986 27.506 10.334C27.158 10.67 26.984 11.126 26.984 11.702C26.984 12.278 27.164 12.734 27.524 13.07C27.884 13.406 28.334 13.574 28.874 13.574ZM34.7212 21.35C34.6252 21.35 34.5412 21.308 34.4692 21.224C34.3972 21.152 34.3672 21.062 34.3792 20.954L34.9372 17.426C34.9612 17.258 35.0272 17.114 35.1352 16.994C35.2432 16.874 35.3932 16.814 35.5852 16.814H37.6912C37.7872 16.814 37.8652 16.85 37.9252 16.922C37.9972 16.982 38.0332 17.06 38.0332 17.156C38.0332 17.24 38.0212 17.306 37.9972 17.354L36.6472 20.846C36.5752 21.002 36.4912 21.122 36.3952 21.206C36.2992 21.302 36.1612 21.35 35.9812 21.35H34.7212ZM41.2062 20C41.0982 20 41.0082 19.964 40.9362 19.892C40.8642 19.808 40.8282 19.712 40.8282 19.604C40.8282 19.52 40.8522 19.442 40.9002 19.37L43.4382 15.896C43.2822 15.932 43.1082 15.95 42.9162 15.95C42.1722 15.902 41.4702 15.698 40.8102 15.338C40.1502 14.978 39.6162 14.486 39.2082 13.862C38.8002 13.238 38.5962 12.524 38.5962 11.72C38.5962 10.928 38.7942 10.19 39.1902 9.506C39.5862 8.822 40.1682 8.27 40.9362 7.85C41.7162 7.43 42.6522 7.22 43.7442 7.22C44.8482 7.22 45.7962 7.412 46.5882 7.796C47.3922 8.18 47.9982 8.708 48.4062 9.38C48.8142 10.04 49.0182 10.778 49.0182 11.594C49.0182 12.254 48.8802 12.854 48.6042 13.394C48.3402 13.934 47.9442 14.57 47.4162 15.302C47.3922 15.326 47.2962 15.458 47.1282 15.698L44.2482 19.64C44.0802 19.88 43.8642 20 43.6002 20H41.2062ZM43.7802 13.574C44.3322 13.574 44.7882 13.406 45.1482 13.07C45.5082 12.734 45.6882 12.278 45.6882 11.702C45.6882 11.126 45.5082 10.67 45.1482 10.334C44.7882 9.986 44.3322 9.812 43.7802 9.812C43.2282 9.812 42.7722 9.986 42.4122 10.334C42.0642 10.67 41.8902 11.126 41.8902 11.702C41.8902 12.278 42.0702 12.734 42.4302 13.07C42.7902 13.406 43.2402 13.574 43.7802 13.574ZM52.7375 20C52.6295 20 52.5395 19.964 52.4675 19.892C52.3955 19.808 52.3595 19.712 52.3595 19.604C52.3595 19.52 52.3835 19.442 52.4315 19.37L54.9695 15.896C54.8135 15.932 54.6395 15.95 54.4475 15.95C53.7035 15.902 53.0015 15.698 52.3415 15.338C51.6815 14.978 51.1475 14.486 50.7395 13.862C50.3315 13.238 50.1275 12.524 50.1275 11.72C50.1275 10.928 50.3255 10.19 50.7215 9.506C51.1175 8.822 51.6995 8.27 52.4675 7.85C53.2475 7.43 54.1835 7.22 55.2755 7.22C56.3795 7.22 57.3275 7.412 58.1195 7.796C58.9235 8.18 59.5295 8.708 59.9375 9.38C60.3455 10.04 60.5495 10.778 60.5495 11.594C60.5495 12.254 60.4115 12.854 60.1355 13.394C59.8715 13.934 59.4755 14.57 58.9475 15.302C58.9235 15.326 58.8275 15.458 58.6595 15.698L55.7795 19.64C55.6115 19.88 55.3955 20 55.1315 20H52.7375ZM55.3115 13.574C55.8635 13.574 56.3195 13.406 56.6795 13.07C57.0395 12.734 57.2195 12.278 57.2195 11.702C57.2195 11.126 57.0395 10.67 56.6795 10.334C56.3195 9.986 55.8635 9.812 55.3115 9.812C54.7595 9.812 54.3035 9.986 53.9435 10.334C53.5955 10.67 53.4215 11.126 53.4215 11.702C53.4215 12.278 53.6015 12.734 53.9615 13.07C54.3215 13.406 54.7715 13.574 55.3115 13.574Z" fill="#414141"/>
<path d="M68.52 20C68.388 20 68.274 19.958 68.178 19.874C68.094 19.79 68.052 19.682 68.052 19.55V17.894H66.72C66.6 17.894 66.492 17.852 66.396 17.768C66.312 17.672 66.27 17.564 66.27 17.444V16.76C66.27 16.628 66.312 16.52 66.396 16.436C66.48 16.352 66.588 16.31 66.72 16.31H68.052V15.392H66.72C66.6 15.392 66.492 15.35 66.396 15.266C66.312 15.17 66.27 15.062 66.27 14.942V13.574C66.27 13.442 66.312 13.334 66.396 13.25C66.492 13.166 66.6 13.124 66.72 13.124H68.052V7.85C68.052 7.718 68.094 7.61 68.178 7.526C68.274 7.442 68.388 7.4 68.52 7.4H73.56C75.096 7.4 76.302 7.754 77.178 8.462C78.054 9.158 78.492 10.19 78.492 11.558C78.492 12.83 78.054 13.79 77.178 14.438C76.314 15.074 75.108 15.392 73.56 15.392H71.418V16.31H73.83C73.962 16.31 74.07 16.352 74.154 16.436C74.238 16.52 74.28 16.628 74.28 16.76V17.444C74.28 17.564 74.238 17.672 74.154 17.768C74.07 17.852 73.962 17.894 73.83 17.894H71.418V19.55C71.418 19.682 71.37 19.79 71.274 19.874C71.19 19.958 71.082 20 70.95 20H68.52ZM73.47 13.124C73.998 13.124 74.406 12.992 74.694 12.728C74.994 12.452 75.144 12.05 75.144 11.522C75.144 11.03 75.006 10.64 74.73 10.352C74.454 10.052 74.034 9.902 73.47 9.902H71.346V13.124H73.47Z" fill="#414141"/>
</svg>
