<svg width="256" height="45" viewBox="0 0 256 45" fill="none" xmlns="http://www.w3.org/2000/svg">
<path d="M2.538 20C2.43 20 2.34 19.964 2.268 19.892C2.196 19.808 2.16 19.712 2.16 19.604C2.16 19.544 2.172 19.49 2.196 19.442L6.354 10.118H0.972C0.84 10.118 0.726 10.076 0.63 9.992C0.546 9.896 0.504 9.782 0.504 9.65V7.85C0.504 7.718 0.546 7.61 0.63 7.526C0.726 7.442 0.84 7.4 0.972 7.4H9.378C9.522 7.4 9.636 7.442 9.72 7.526C9.804 7.61 9.846 7.718 9.846 7.85V9.452C9.846 9.704 9.78 9.974 9.648 10.262L5.49 19.568C5.358 19.856 5.148 20 4.86 20H2.538ZM12.8564 20C12.7484 20 12.6584 19.964 12.5864 19.892C12.5144 19.808 12.4784 19.712 12.4784 19.604C12.4784 19.544 12.4904 19.49 12.5144 19.442L16.6724 10.118H11.2904C11.1584 10.118 11.0444 10.076 10.9484 9.992C10.8644 9.896 10.8224 9.782 10.8224 9.65V7.85C10.8224 7.718 10.8644 7.61 10.9484 7.526C11.0444 7.442 11.1584 7.4 11.2904 7.4H19.6964C19.8404 7.4 19.9544 7.442 20.0384 7.526C20.1224 7.61 20.1644 7.718 20.1644 7.85V9.452C20.1644 9.704 20.0984 9.974 19.9664 10.262L15.8084 19.568C15.6764 19.856 15.4664 20 15.1784 20H12.8564ZM20.5532 21.35C20.4572 21.35 20.3732 21.308 20.3012 21.224C20.2292 21.152 20.1992 21.062 20.2112 20.954L20.7692 17.426C20.7932 17.258 20.8592 17.114 20.9672 16.994C21.0752 16.874 21.2252 16.814 21.4172 16.814H23.5232C23.6192 16.814 23.6972 16.85 23.7572 16.922C23.8292 16.982 23.8652 17.06 23.8652 17.156C23.8652 17.24 23.8532 17.306 23.8292 17.354L22.4792 20.846C22.4072 21.002 22.3232 21.122 22.2272 21.206C22.1312 21.302 21.9932 21.35 21.8132 21.35H20.5532ZM27.0383 20C26.9303 20 26.8403 19.964 26.7683 19.892C26.6963 19.808 26.6603 19.712 26.6603 19.604C26.6603 19.52 26.6843 19.442 26.7323 19.37L29.2703 15.896C29.1143 15.932 28.9403 15.95 28.7483 15.95C28.0043 15.902 27.3023 15.698 26.6423 15.338C25.9823 14.978 25.4483 14.486 25.0403 13.862C24.6323 13.238 24.4283 12.524 24.4283 11.72C24.4283 10.928 24.6263 10.19 25.0223 9.506C25.4183 8.822 26.0003 8.27 26.7683 7.85C27.5483 7.43 28.4843 7.22 29.5763 7.22C30.6803 7.22 31.6283 7.412 32.4203 7.796C33.2243 8.18 33.8303 8.708 34.2383 9.38C34.6463 10.04 34.8503 10.778 34.8503 11.594C34.8503 12.254 34.7123 12.854 34.4363 13.394C34.1723 13.934 33.7763 14.57 33.2483 15.302C33.2243 15.326 33.1283 15.458 32.9603 15.698L30.0803 19.64C29.9123 19.88 29.6963 20 29.4323 20H27.0383ZM29.6123 13.574C30.1643 13.574 30.6203 13.406 30.9803 13.07C31.3403 12.734 31.5203 12.278 31.5203 11.702C31.5203 11.126 31.3403 10.67 30.9803 10.334C30.6203 9.986 30.1643 9.812 29.6123 9.812C29.0603 9.812 28.6043 9.986 28.2443 10.334C27.8963 10.67 27.7223 11.126 27.7223 11.702C27.7223 12.278 27.9023 12.734 28.2623 13.07C28.6223 13.406 29.0723 13.574 29.6123 13.574ZM38.5695 20C38.4615 20 38.3715 19.964 38.2995 19.892C38.2275 19.808 38.1915 19.712 38.1915 19.604C38.1915 19.52 38.2155 19.442 38.2635 19.37L40.8015 15.896C40.6455 15.932 40.4715 15.95 40.2795 15.95C39.5355 15.902 38.8335 15.698 38.1735 15.338C37.5135 14.978 36.9795 14.486 36.5715 13.862C36.1635 13.238 35.9595 12.524 35.9595 11.72C35.9595 10.928 36.1575 10.19 36.5535 9.506C36.9495 8.822 37.5315 8.27 38.2995 7.85C39.0795 7.43 40.0155 7.22 41.1075 7.22C42.2115 7.22 43.1595 7.412 43.9515 7.796C44.7555 8.18 45.3615 8.708 45.7695 9.38C46.1775 10.04 46.3815 10.778 46.3815 11.594C46.3815 12.254 46.2435 12.854 45.9675 13.394C45.7035 13.934 45.3075 14.57 44.7795 15.302C44.7555 15.326 44.6595 15.458 44.4915 15.698L41.6115 19.64C41.4435 19.88 41.2275 20 40.9635 20H38.5695ZM41.1435 13.574C41.6955 13.574 42.1515 13.406 42.5115 13.07C42.8715 12.734 43.0515 12.278 43.0515 11.702C43.0515 11.126 42.8715 10.67 42.5115 10.334C42.1515 9.986 41.6955 9.812 41.1435 9.812C40.5915 9.812 40.1355 9.986 39.7755 10.334C39.4275 10.67 39.2535 11.126 39.2535 11.702C39.2535 12.278 39.4335 12.734 39.7935 13.07C40.1535 13.406 40.6035 13.574 41.1435 13.574Z" fill="#414141"/>
<path d="M53.52 20C53.388 20 53.274 19.958 53.178 19.874C53.094 19.79 53.052 19.682 53.052 19.55V17.894H51.72C51.6 17.894 51.492 17.852 51.396 17.768C51.312 17.672 51.27 17.564 51.27 17.444V16.76C51.27 16.628 51.312 16.52 51.396 16.436C51.48 16.352 51.588 16.31 51.72 16.31H53.052V15.392H51.72C51.6 15.392 51.492 15.35 51.396 15.266C51.312 15.17 51.27 15.062 51.27 14.942V13.574C51.27 13.442 51.312 13.334 51.396 13.25C51.492 13.166 51.6 13.124 51.72 13.124H53.052V7.85C53.052 7.718 53.094 7.61 53.178 7.526C53.274 7.442 53.388 7.4 53.52 7.4H58.56C60.096 7.4 61.302 7.754 62.178 8.462C63.054 9.158 63.492 10.19 63.492 11.558C63.492 12.83 63.054 13.79 62.178 14.438C61.314 15.074 60.108 15.392 58.56 15.392H56.418V16.31H58.83C58.962 16.31 59.07 16.352 59.154 16.436C59.238 16.52 59.28 16.628 59.28 16.76V17.444C59.28 17.564 59.238 17.672 59.154 17.768C59.07 17.852 58.962 17.894 58.83 17.894H56.418V19.55C56.418 19.682 56.37 19.79 56.274 19.874C56.19 19.958 56.082 20 55.95 20H53.52ZM58.47 13.124C58.998 13.124 59.406 12.992 59.694 12.728C59.994 12.452 60.144 12.05 60.144 11.522C60.144 11.03 60.006 10.64 59.73 10.352C59.454 10.052 59.034 9.902 58.47 9.902H56.346V13.124H58.47Z" fill="#414141"/>
</svg>
