<svg width="256" height="45" viewBox="0 0 256 45" fill="none" xmlns="http://www.w3.org/2000/svg">
<path d="M7.002 20C6.882 20 6.774 19.958 6.678 19.874C6.594 19.778 6.552 19.67 6.552 19.55V17.516H0.954C0.822 17.516 0.714 17.474 0.63 17.39C0.546 17.306 0.504 17.198 0.504 17.066V15.356C0.504 15.176 0.57 14.99 0.702 14.798L5.94 7.706C6.108 7.502 6.33 7.4 6.606 7.4H9.234C9.366 7.4 9.474 7.442 9.558 7.526C9.642 7.61 9.684 7.718 9.684 7.85V14.834H11.268C11.412 14.834 11.526 14.882 11.61 14.978C11.694 15.062 11.736 15.164 11.736 15.284V17.066C11.736 17.198 11.694 17.306 11.61 17.39C11.526 17.474 11.418 17.516 11.286 17.516H9.684V19.55C9.684 19.67 9.642 19.778 9.558 19.874C9.474 19.958 9.366 20 9.234 20H7.002ZM6.624 14.96V10.712L3.6 14.96H6.624ZM19.2891 20C19.1691 20 19.0611 19.958 18.9651 19.874C18.8811 19.778 18.8391 19.67 18.8391 19.55V17.516H13.2411C13.1091 17.516 13.0011 17.474 12.9171 17.39C12.8331 17.306 12.7911 17.198 12.7911 17.066V15.356C12.7911 15.176 12.8571 14.99 12.9891 14.798L18.2271 7.706C18.3951 7.502 18.6171 7.4 18.8931 7.4H21.5211C21.6531 7.4 21.7611 7.442 21.8451 7.526C21.9291 7.61 21.9711 7.718 21.9711 7.85V14.834H23.5551C23.6991 14.834 23.8131 14.882 23.8971 14.978C23.9811 15.062 24.0231 15.164 24.0231 15.284V17.066C24.0231 17.198 23.9811 17.306 23.8971 17.39C23.8131 17.474 23.7051 17.516 23.5731 17.516H21.9711V19.55C21.9711 19.67 21.9291 19.778 21.8451 19.874C21.7611 19.958 21.6531 20 21.5211 20H19.2891ZM18.9111 14.96V10.712L15.8871 14.96H18.9111ZM25.3872 21.35C25.2912 21.35 25.2072 21.308 25.1352 21.224C25.0632 21.152 25.0332 21.062 25.0452 20.954L25.6032 17.426C25.6272 17.258 25.6932 17.114 25.8012 16.994C25.9092 16.874 26.0592 16.814 26.2512 16.814H28.3572C28.4532 16.814 28.5312 16.85 28.5912 16.922C28.6632 16.982 28.6992 17.06 28.6992 17.156C28.6992 17.24 28.6872 17.306 28.6632 17.354L27.3132 20.846C27.2412 21.002 27.1572 21.122 27.0612 21.206C26.9652 21.302 26.8272 21.35 26.6472 21.35H25.3872ZM35.2209 20.198C34.1409 20.198 33.2169 20.03 32.4489 19.694C31.6809 19.346 31.0929 18.884 30.6849 18.308C30.2889 17.732 30.0789 17.108 30.0549 16.436C30.0549 16.328 30.0909 16.238 30.1629 16.166C30.2349 16.094 30.3249 16.058 30.4329 16.058H32.8449C33.1209 16.058 33.3129 16.172 33.4209 16.4C33.7449 17.204 34.3509 17.606 35.2389 17.606C35.7669 17.606 36.2109 17.444 36.5709 17.12C36.9429 16.784 37.1289 16.322 37.1289 15.734C37.1289 15.206 36.9489 14.774 36.5889 14.438C36.2409 14.102 35.7909 13.934 35.2389 13.934C34.9269 13.934 34.6749 13.976 34.4829 14.06C34.3029 14.132 34.1169 14.24 33.9249 14.384C33.7209 14.54 33.5589 14.618 33.4389 14.618H31.0809C30.9729 14.618 30.8769 14.582 30.7929 14.51C30.7209 14.426 30.6849 14.33 30.6849 14.222L31.3329 7.94C31.3449 7.772 31.4049 7.64 31.5129 7.544C31.6329 7.448 31.7709 7.4 31.9269 7.4H39.1449C39.2769 7.4 39.3849 7.442 39.4689 7.526C39.5649 7.61 39.6129 7.718 39.6129 7.85V9.542C39.6129 9.674 39.5649 9.782 39.4689 9.866C39.3849 9.95 39.2769 9.992 39.1449 9.992H33.9249L33.6909 12.314C33.9909 12.11 34.3209 11.96 34.6809 11.864C35.0409 11.756 35.5089 11.702 36.0849 11.702C36.8409 11.702 37.5549 11.876 38.2269 12.224C38.8989 12.56 39.4329 13.04 39.8289 13.664C40.2369 14.288 40.4409 15.002 40.4409 15.806C40.4409 16.658 40.2309 17.42 39.8109 18.092C39.3909 18.752 38.7849 19.268 37.9929 19.64C37.2129 20.012 36.2889 20.198 35.2209 20.198ZM47.1997 20.18C45.5437 20.168 44.2897 19.73 43.4377 18.866C42.5857 17.99 42.1237 16.844 42.0517 15.428C42.0277 14.78 42.0157 14.204 42.0157 13.7C42.0157 13.184 42.0277 12.59 42.0517 11.918C42.0997 11.018 42.3157 10.22 42.6997 9.524C43.0957 8.816 43.6717 8.258 44.4277 7.85C45.1837 7.43 46.1077 7.22 47.1997 7.22C48.8197 7.232 50.0677 7.67 50.9437 8.534C51.8197 9.398 52.2937 10.526 52.3657 11.918C52.3897 12.59 52.4017 13.184 52.4017 13.7C52.4017 14.204 52.3897 14.78 52.3657 15.428C52.2817 16.844 51.8137 17.99 50.9617 18.866C50.1097 19.73 48.8557 20.168 47.1997 20.18ZM47.1997 17.57C47.7877 17.57 48.2257 17.378 48.5137 16.994C48.8137 16.598 48.9757 16.046 48.9997 15.338C49.0237 14.99 49.0357 14.432 49.0357 13.664C49.0357 12.896 49.0237 12.35 48.9997 12.026C48.9757 11.342 48.8197 10.802 48.5317 10.406C48.2437 10.01 47.7997 9.806 47.1997 9.794C46.6117 9.806 46.1677 10.01 45.8677 10.406C45.5797 10.802 45.4237 11.342 45.3997 12.026C45.3877 12.35 45.3817 12.896 45.3817 13.664C45.3817 14.432 45.3877 14.99 45.3997 15.338C45.4597 16.826 46.0597 17.57 47.1997 17.57Z" fill="#414141"/>
<path d="M60.52 20C60.388 20 60.274 19.958 60.178 19.874C60.094 19.79 60.052 19.682 60.052 19.55V17.894H58.72C58.6 17.894 58.492 17.852 58.396 17.768C58.312 17.672 58.27 17.564 58.27 17.444V16.76C58.27 16.628 58.312 16.52 58.396 16.436C58.48 16.352 58.588 16.31 58.72 16.31H60.052V15.392H58.72C58.6 15.392 58.492 15.35 58.396 15.266C58.312 15.17 58.27 15.062 58.27 14.942V13.574C58.27 13.442 58.312 13.334 58.396 13.25C58.492 13.166 58.6 13.124 58.72 13.124H60.052V7.85C60.052 7.718 60.094 7.61 60.178 7.526C60.274 7.442 60.388 7.4 60.52 7.4H65.56C67.096 7.4 68.302 7.754 69.178 8.462C70.054 9.158 70.492 10.19 70.492 11.558C70.492 12.83 70.054 13.79 69.178 14.438C68.314 15.074 67.108 15.392 65.56 15.392H63.418V16.31H65.83C65.962 16.31 66.07 16.352 66.154 16.436C66.238 16.52 66.28 16.628 66.28 16.76V17.444C66.28 17.564 66.238 17.672 66.154 17.768C66.07 17.852 65.962 17.894 65.83 17.894H63.418V19.55C63.418 19.682 63.37 19.79 63.274 19.874C63.19 19.958 63.082 20 62.95 20H60.52ZM65.47 13.124C65.998 13.124 66.406 12.992 66.694 12.728C66.994 12.452 67.144 12.05 67.144 11.522C67.144 11.03 67.006 10.64 66.73 10.352C66.454 10.052 66.034 9.902 65.47 9.902H63.346V13.124H65.47Z" fill="#414141"/>
</svg>
