<svg width="56" height="50" viewBox="0 0 56 50" fill="none" xmlns="http://www.w3.org/2000/svg">
<path fill-rule="evenodd" clip-rule="evenodd" d="M27.3325 1.89776C27.3324 1.89785 27.3327 1.89767 27.3325 1.89776L19.3337 5.89721L19.3325 5.89776C18.8229 6.15102 18.5005 6.67089 18.5 7.24V16.7635C18.4961 17.3334 18.8154 17.8563 19.3242 18.113C19.3239 18.1129 19.3245 18.1132 19.3242 18.113L27.3237 22.1128C27.7462 22.3242 28.2438 22.3243 28.6663 22.1129L36.6664 18.1128L36.6675 18.1122C37.1773 17.8589 37.4997 17.3389 37.5 16.7697V7.24026C37.4997 6.67105 37.1773 6.15106 36.6675 5.89776L36.6664 5.89721L28.6675 1.89776C28.6674 1.89767 28.6677 1.89786 28.6675 1.89776C28.2474 1.6892 27.7527 1.68919 27.3325 1.89776ZM26.8875 1.00223C27.5883 0.654 28.4118 0.654 29.1125 1.00223L29.1137 1.00278L37.1125 5.00223C37.1124 5.00215 37.1127 5.00231 37.1125 5.00223C37.9618 5.42448 38.4995 6.29123 38.5 7.23973V16.77C38.4995 17.7184 37.9624 18.5852 37.1132 19.0074C37.113 19.0075 37.1134 19.0073 37.1132 19.0074L29.1138 23.0071C29.1138 23.0072 29.1138 23.0071 29.1138 23.0071C28.4097 23.3594 27.5806 23.3595 26.8764 23.0072C26.8764 23.0072 26.8765 23.0072 26.8764 23.0072L18.8764 19.0072L18.8751 19.0065C18.0268 18.5791 17.4941 17.708 17.5 16.7584V7.24C17.5006 6.29154 18.0377 5.4248 18.8869 5.00253C18.8867 5.00263 18.8871 5.00243 18.8869 5.00253L26.8864 1.00278L26.8875 1.00223Z" fill="#414141"/>
<path fill-rule="evenodd" clip-rule="evenodd" d="M17.8732 5.93638C17.9967 5.6894 18.297 5.58928 18.544 5.71278L28.0004 10.441L37.4568 5.71278C37.7038 5.58928 38.0041 5.6894 38.1276 5.93638C38.2511 6.18337 38.151 6.48371 37.904 6.6072L28.224 11.4472C28.0833 11.5176 27.9176 11.5176 27.7768 11.4472L18.0968 6.6072C17.8498 6.48371 17.7497 6.18337 17.8732 5.93638Z" fill="#414141"/>
<path fill-rule="evenodd" clip-rule="evenodd" d="M28 10.5C28.2761 10.5 28.5 10.7239 28.5 11V22.76C28.5 23.0361 28.2761 23.26 28 23.26C27.7239 23.26 27.5 23.0361 27.5 22.76V11C27.5 10.7239 27.7239 10.5 28 10.5Z" fill="#414141"/>
<path fill-rule="evenodd" clip-rule="evenodd" d="M22.5529 3.27638C22.6764 3.02939 22.9767 2.92928 23.2237 3.05277L33.2237 8.05277C33.4707 8.17627 33.5708 8.4766 33.4473 8.72359C33.3238 8.97058 33.0235 9.0707 32.7765 8.9472L22.7765 3.9472C22.5295 3.82371 22.4294 3.52337 22.5529 3.27638Z" fill="#414141"/>
<path d="M1.17377 45C1.09377 45 1.02577 44.976 0.969766 44.928C0.921766 44.872 0.897766 44.804 0.897766 44.724V39.036C0.897766 38.956 0.921766 38.892 0.969766 38.844C1.02577 38.788 1.09377 38.76 1.17377 38.76H5.93777C6.01777 38.76 6.08177 38.788 6.12977 38.844C6.18577 38.892 6.21377 38.956 6.21377 39.036V44.724C6.21377 44.804 6.18577 44.872 6.12977 44.928C6.08177 44.976 6.01777 45 5.93777 45H5.36177C5.28177 45 5.21777 44.976 5.16977 44.928C5.12177 44.872 5.09777 44.804 5.09777 44.724V39.72H2.01377V44.724C2.01377 44.804 1.98977 44.872 1.94177 44.928C1.89377 44.976 1.82977 45 1.74977 45H1.17377ZM8.28733 47.28C8.20733 47.28 8.13933 47.252 8.08333 47.196C8.03533 47.148 8.01133 47.084 8.01133 47.004V39.036C8.01133 38.956 8.03533 38.892 8.08333 38.844C8.13933 38.788 8.20733 38.76 8.28733 38.76H8.83933C8.91933 38.76 8.98333 38.788 9.03133 38.844C9.08733 38.892 9.11533 38.956 9.11533 39.036V39.564C9.30733 39.3 9.56333 39.08 9.88333 38.904C10.2033 38.728 10.6033 38.64 11.0833 38.64C11.5313 38.64 11.9113 38.716 12.2233 38.868C12.5433 39.02 12.8033 39.228 13.0033 39.492C13.2113 39.756 13.3673 40.056 13.4713 40.392C13.5753 40.728 13.6313 41.088 13.6393 41.472C13.6473 41.6 13.6513 41.736 13.6513 41.88C13.6513 42.024 13.6473 42.16 13.6393 42.288C13.6313 42.664 13.5753 43.024 13.4713 43.368C13.3673 43.704 13.2113 44.004 13.0033 44.268C12.8033 44.524 12.5433 44.732 12.2233 44.892C11.9113 45.044 11.5313 45.12 11.0833 45.12C10.6193 45.12 10.2273 45.036 9.90733 44.868C9.59533 44.692 9.33933 44.476 9.13933 44.22V47.004C9.13933 47.084 9.11533 47.148 9.06733 47.196C9.01933 47.252 8.95133 47.28 8.86333 47.28H8.28733ZM10.8313 44.148C11.2473 44.148 11.5713 44.06 11.8033 43.884C12.0433 43.7 12.2153 43.464 12.3193 43.176C12.4233 42.88 12.4833 42.564 12.4993 42.228C12.5073 41.996 12.5073 41.764 12.4993 41.532C12.4833 41.196 12.4233 40.884 12.3193 40.596C12.2153 40.3 12.0433 40.064 11.8033 39.888C11.5713 39.704 11.2473 39.612 10.8313 39.612C10.4393 39.612 10.1193 39.704 9.87133 39.888C9.63133 40.072 9.45133 40.308 9.33133 40.596C9.21933 40.876 9.15533 41.164 9.13933 41.46C9.13133 41.588 9.12733 41.74 9.12733 41.916C9.12733 42.092 9.13133 42.248 9.13933 42.384C9.14733 42.664 9.21133 42.94 9.33133 43.212C9.45933 43.484 9.64733 43.708 9.89533 43.884C10.1433 44.06 10.4553 44.148 10.8313 44.148ZM17.7038 45.12C17.0958 45.12 16.5878 45.004 16.1798 44.772C15.7718 44.54 15.4598 44.22 15.2438 43.812C15.0278 43.396 14.9078 42.924 14.8838 42.396C14.8758 42.26 14.8718 42.088 14.8718 41.88C14.8718 41.664 14.8758 41.492 14.8838 41.364C14.9078 40.828 15.0278 40.356 15.2438 39.948C15.4678 39.54 15.7838 39.22 16.1918 38.988C16.5998 38.756 17.1038 38.64 17.7038 38.64C18.3038 38.64 18.8078 38.756 19.2158 38.988C19.6238 39.22 19.9358 39.54 20.1518 39.948C20.3758 40.356 20.4998 40.828 20.5238 41.364C20.5318 41.492 20.5358 41.664 20.5358 41.88C20.5358 42.088 20.5318 42.26 20.5238 42.396C20.4998 42.924 20.3798 43.396 20.1638 43.812C19.9478 44.22 19.6358 44.54 19.2278 44.772C18.8198 45.004 18.3118 45.12 17.7038 45.12ZM17.7038 44.196C18.1998 44.196 18.5958 44.04 18.8918 43.728C19.1878 43.408 19.3478 42.944 19.3718 42.336C19.3798 42.216 19.3838 42.064 19.3838 41.88C19.3838 41.696 19.3798 41.544 19.3718 41.424C19.3478 40.816 19.1878 40.356 18.8918 40.044C18.5958 39.724 18.1998 39.564 17.7038 39.564C17.2078 39.564 16.8078 39.724 16.5038 40.044C16.2078 40.356 16.0518 40.816 16.0358 41.424C16.0278 41.544 16.0238 41.696 16.0238 41.88C16.0238 42.064 16.0278 42.216 16.0358 42.336C16.0518 42.944 16.2078 43.408 16.5038 43.728C16.8078 44.04 17.2078 44.196 17.7038 44.196ZM21.6784 46.32C21.5984 46.32 21.5304 46.292 21.4744 46.236C21.4264 46.188 21.4024 46.124 21.4024 46.044V44.316C21.4024 44.236 21.4264 44.172 21.4744 44.124C21.5304 44.068 21.5984 44.04 21.6784 44.04H21.7384C21.9544 44.032 22.1384 43.912 22.2904 43.68C22.4424 43.44 22.5584 43.068 22.6384 42.564C22.7184 42.052 22.7584 41.388 22.7584 40.572V39.036C22.7584 38.956 22.7824 38.892 22.8304 38.844C22.8864 38.788 22.9544 38.76 23.0344 38.76H26.8624C26.9424 38.76 27.0064 38.788 27.0544 38.844C27.1104 38.892 27.1384 38.956 27.1384 39.036V44.016H27.7024C27.7904 44.016 27.8584 44.044 27.9064 44.1C27.9544 44.148 27.9784 44.212 27.9784 44.292V46.044C27.9784 46.124 27.9544 46.188 27.9064 46.236C27.8584 46.292 27.7904 46.32 27.7024 46.32H27.1384C27.0584 46.32 26.9904 46.292 26.9344 46.236C26.8864 46.188 26.8624 46.124 26.8624 46.044V45H22.5184V46.044C22.5184 46.124 22.4904 46.188 22.4344 46.236C22.3864 46.292 22.3224 46.32 22.2424 46.32H21.6784ZM23.1664 44.04L26.0224 44.016V39.72H23.8504V40.704C23.8504 41.552 23.7904 42.248 23.6704 42.792C23.5504 43.328 23.3824 43.744 23.1664 44.04ZM29.5217 47.28C29.4337 47.28 29.3657 47.252 29.3177 47.196C29.2697 47.148 29.2457 47.084 29.2457 47.004V46.596C29.2457 46.516 29.2697 46.448 29.3177 46.392C29.3657 46.344 29.4337 46.32 29.5217 46.32H29.8337C30.0177 46.32 30.1657 46.284 30.2777 46.212C30.3897 46.14 30.4897 46.016 30.5777 45.84C30.6737 45.672 30.7857 45.44 30.9137 45.144L33.5177 38.964C33.5417 38.9 33.5737 38.852 33.6137 38.82C33.6617 38.78 33.7297 38.76 33.8177 38.76H34.3457C34.4177 38.76 34.4777 38.784 34.5257 38.832C34.5737 38.88 34.5977 38.936 34.5977 39C34.5977 39.032 34.5937 39.064 34.5857 39.096C34.5777 39.12 34.5617 39.16 34.5377 39.216L32.2577 44.616C32.1377 44.904 32.0057 45.204 31.8617 45.516C31.7257 45.828 31.5697 46.116 31.3937 46.38C31.2257 46.652 31.0257 46.868 30.7937 47.028C30.5617 47.196 30.2897 47.28 29.9777 47.28H29.5217ZM31.1897 44.82L28.7657 39.216C28.7257 39.12 28.7057 39.052 28.7057 39.012C28.7137 38.94 28.7417 38.88 28.7897 38.832C28.8377 38.784 28.8937 38.76 28.9577 38.76H29.5217C29.6097 38.76 29.6737 38.78 29.7137 38.82C29.7617 38.86 29.7977 38.908 29.8217 38.964L31.8137 43.728L31.1897 44.82ZM36.0839 45C36.0039 45 35.9359 44.976 35.8799 44.928C35.8319 44.872 35.8079 44.804 35.8079 44.724V39.036C35.8079 38.956 35.8319 38.892 35.8799 38.844C35.9359 38.788 36.0039 38.76 36.0839 38.76H36.6479C36.7279 38.76 36.7919 38.788 36.8399 38.844C36.8959 38.892 36.9239 38.956 36.9239 39.036V41.34H38.0159L39.6359 38.94C39.6759 38.884 39.7199 38.84 39.7679 38.808C39.8159 38.776 39.8799 38.76 39.9599 38.76H40.5839C40.6559 38.76 40.7159 38.776 40.7639 38.808C40.8119 38.84 40.8359 38.888 40.8359 38.952C40.8359 38.968 40.8279 38.992 40.8119 39.024C40.8039 39.048 40.7919 39.072 40.7759 39.096L38.9759 41.748L41.0159 44.652C41.0559 44.7 41.0759 44.752 41.0759 44.808C41.0759 44.872 41.0519 44.92 41.0039 44.952C40.9639 44.984 40.9079 45 40.8359 45H40.1039C40.0319 45 39.9719 44.984 39.9239 44.952C39.8759 44.92 39.8319 44.876 39.7919 44.82L38.0279 42.312H36.9239V44.724C36.9239 44.804 36.8959 44.872 36.8399 44.928C36.7919 44.976 36.7279 45 36.6479 45H36.0839ZM44.1495 45C44.0695 45 44.0015 44.976 43.9455 44.928C43.8975 44.872 43.8735 44.804 43.8735 44.724V39.72H41.7855C41.7055 39.72 41.6375 39.696 41.5815 39.648C41.5335 39.592 41.5095 39.524 41.5095 39.444V39.036C41.5095 38.956 41.5335 38.892 41.5815 38.844C41.6375 38.788 41.7055 38.76 41.7855 38.76H47.0655C47.1455 38.76 47.2095 38.788 47.2575 38.844C47.3135 38.892 47.3415 38.956 47.3415 39.036V39.444C47.3415 39.524 47.3135 39.592 47.2575 39.648C47.2095 39.696 47.1455 39.72 47.0655 39.72H44.9775V44.724C44.9775 44.804 44.9535 44.872 44.9055 44.928C44.8575 44.976 44.7895 45 44.7015 45H44.1495ZM48.6581 45C48.5781 45 48.5101 44.976 48.4541 44.928C48.4061 44.872 48.3821 44.804 48.3821 44.724V39.036C48.3821 38.956 48.4061 38.892 48.4541 38.844C48.5101 38.788 48.5781 38.76 48.6581 38.76H49.2341C49.3141 38.76 49.3781 38.788 49.4261 38.844C49.4821 38.892 49.5101 38.956 49.5101 39.036V40.8H50.7581C51.5741 40.8 52.1701 40.992 52.5461 41.376C52.9221 41.76 53.1101 42.28 53.1101 42.936C53.1101 43.64 52.9021 44.16 52.4861 44.496C52.0701 44.832 51.4461 45 50.6141 45H48.6581ZM49.4981 44.1H50.6501C51.1381 44.1 51.4941 44.016 51.7181 43.848C51.9421 43.672 52.0541 43.368 52.0541 42.936C52.0541 42.52 51.9461 42.212 51.7301 42.012C51.5141 41.804 51.1541 41.7 50.6501 41.7H49.4981V44.1ZM54.2381 45C54.1581 45 54.0901 44.976 54.0341 44.928C53.9861 44.872 53.9621 44.804 53.9621 44.724V39.036C53.9621 38.956 53.9861 38.892 54.0341 38.844C54.0901 38.788 54.1581 38.76 54.2381 38.76H54.8141C54.8941 38.76 54.9581 38.788 55.0061 38.844C55.0621 38.892 55.0901 38.956 55.0901 39.036V44.724C55.0901 44.804 55.0621 44.872 55.0061 44.928C54.9581 44.976 54.8941 45 54.8141 45H54.2381Z" fill="#414141"/>
</svg>
