<svg width="50" height="54" viewBox="0 0 50 54" fill="none" xmlns="http://www.w3.org/2000/svg">
<path fill-rule="evenodd" clip-rule="evenodd" d="M18.5 25C18.5 23.6193 19.6193 22.5 21 22.5C22.3807 22.5 23.5 23.6193 23.5 25C23.5 26.3807 22.3807 27.5 21 27.5C19.6193 27.5 18.5 26.3807 18.5 25ZM21 23.5C20.1716 23.5 19.5 24.1716 19.5 25C19.5 25.8284 20.1716 26.5 21 26.5C21.8284 26.5 22.5 25.8284 22.5 25C22.5 24.1716 21.8284 23.5 21 23.5Z" fill="#414141"/>
<path fill-rule="evenodd" clip-rule="evenodd" d="M30.5 25C30.5 23.6193 31.6193 22.5 33 22.5C34.3807 22.5 35.5 23.6193 35.5 25C35.5 26.3807 34.3807 27.5 33 27.5C31.6193 27.5 30.5 26.3807 30.5 25ZM33 23.5C32.1716 23.5 31.5 24.1716 31.5 25C31.5 25.8284 32.1716 26.5 33 26.5C33.8284 26.5 34.5 25.8284 34.5 25C34.5 24.1716 33.8284 23.5 33 23.5Z" fill="#414141"/>
<path fill-rule="evenodd" clip-rule="evenodd" d="M14 4.5C13.7239 4.5 13.5 4.72386 13.5 5C13.5 5.27614 13.7239 5.5 14 5.5H17.5805C18.3378 9.79147 19.1033 14.0643 19.7493 18.3709C19.9329 19.5947 20.9842 20.5 22.2217 20.5H32.3597C33.5514 20.5 34.5774 19.6588 34.8111 18.4903L36.2503 11.2942C36.436 10.366 35.726 9.5 34.7795 9.5H20.1605C19.8575 9.5 19.578 9.58901 19.3444 9.74093L18.4924 4.91311C18.4502 4.67418 18.2426 4.5 18 4.5H14ZM19.666 11.0742C19.6207 10.7719 19.8548 10.5 20.1605 10.5H34.7795C35.095 10.5 35.3316 10.7887 35.2698 11.0981L33.8305 18.2942C33.6903 18.9953 33.0747 19.5 32.3597 19.5H22.2217C21.4792 19.5 20.8484 18.9568 20.7382 18.2225L19.666 11.0742Z" fill="#414141"/>
<rect x="24.8604" width="11.28" height="11" rx="4" fill="#FF6633"/>
<path d="M31.3804 9C31.3137 9 31.257 8.98 31.2104 8.94C31.1704 8.89333 31.1504 8.83667 31.1504 8.77V3.17L29.4904 4.45C29.4437 4.49 29.3937 4.51 29.3404 4.51C29.2804 4.51 29.2237 4.47667 29.1704 4.41L28.9104 4.08C28.877 4.03333 28.8604 3.98667 28.8604 3.94C28.8604 3.86 28.8937 3.79667 28.9604 3.75L31.1404 2.07C31.2137 2.02333 31.3004 2 31.4004 2H31.9104C31.977 2 32.0304 2.02333 32.0704 2.07C32.117 2.11 32.1404 2.16333 32.1404 2.23V8.77C32.1404 8.83667 32.117 8.89333 32.0704 8.94C32.0304 8.98 31.977 9 31.9104 9H31.3804Z" fill="white"/>
<path d="M1.76922 49C1.68122 49 1.61322 48.976 1.56522 48.928C1.51722 48.872 1.49322 48.804 1.49322 48.724V40.888C1.49322 40.8 1.51722 40.732 1.56522 40.684C1.61322 40.628 1.68122 40.6 1.76922 40.6H2.38122C2.46922 40.6 2.53722 40.628 2.58522 40.684C2.64122 40.732 2.66922 40.8 2.66922 40.888V44.2H4.02522L6.16122 40.792C6.20122 40.728 6.25322 40.68 6.31722 40.648C6.38122 40.616 6.46522 40.6 6.56922 40.6H7.21722C7.30522 40.6 7.36922 40.624 7.40922 40.672C7.44922 40.72 7.46922 40.776 7.46922 40.84C7.46922 40.888 7.44922 40.94 7.40922 40.996L5.10522 44.668L7.63722 48.58C7.66122 48.612 7.67322 48.656 7.67322 48.712C7.67322 48.792 7.64522 48.86 7.58922 48.916C7.54122 48.972 7.47722 49 7.39722 49H6.71322C6.62522 49 6.55722 48.984 6.50922 48.952C6.46922 48.912 6.43322 48.868 6.40122 48.82L4.07322 45.28H2.66922V48.724C2.66922 48.804 2.64122 48.872 2.58522 48.928C2.53722 48.976 2.46922 49 2.38122 49H1.76922ZM11.569 49.12C10.961 49.12 10.453 49.004 10.045 48.772C9.637 48.54 9.325 48.22 9.109 47.812C8.893 47.396 8.773 46.924 8.749 46.396C8.741 46.26 8.737 46.088 8.737 45.88C8.737 45.664 8.741 45.492 8.749 45.364C8.773 44.828 8.893 44.356 9.109 43.948C9.333 43.54 9.649 43.22 10.057 42.988C10.465 42.756 10.969 42.64 11.569 42.64C12.169 42.64 12.673 42.756 13.081 42.988C13.489 43.22 13.801 43.54 14.017 43.948C14.241 44.356 14.365 44.828 14.389 45.364C14.397 45.492 14.401 45.664 14.401 45.88C14.401 46.088 14.397 46.26 14.389 46.396C14.365 46.924 14.245 47.396 14.029 47.812C13.813 48.22 13.501 48.54 13.093 48.772C12.685 49.004 12.177 49.12 11.569 49.12ZM11.569 48.196C12.065 48.196 12.461 48.04 12.757 47.728C13.053 47.408 13.213 46.944 13.237 46.336C13.245 46.216 13.249 46.064 13.249 45.88C13.249 45.696 13.245 45.544 13.237 45.424C13.213 44.816 13.053 44.356 12.757 44.044C12.461 43.724 12.065 43.564 11.569 43.564C11.073 43.564 10.673 43.724 10.369 44.044C10.073 44.356 9.917 44.816 9.901 45.424C9.893 45.544 9.889 45.696 9.889 45.88C9.889 46.064 9.893 46.216 9.901 46.336C9.917 46.944 10.073 47.408 10.369 47.728C10.673 48.04 11.073 48.196 11.569 48.196ZM16.1916 51.28C16.1116 51.28 16.0436 51.252 15.9876 51.196C15.9396 51.148 15.9156 51.084 15.9156 51.004V43.036C15.9156 42.956 15.9396 42.892 15.9876 42.844C16.0436 42.788 16.1116 42.76 16.1916 42.76H16.7436C16.8236 42.76 16.8876 42.788 16.9356 42.844C16.9916 42.892 17.0196 42.956 17.0196 43.036V43.564C17.2116 43.3 17.4676 43.08 17.7876 42.904C18.1076 42.728 18.5076 42.64 18.9876 42.64C19.4356 42.64 19.8156 42.716 20.1276 42.868C20.4476 43.02 20.7076 43.228 20.9076 43.492C21.1156 43.756 21.2716 44.056 21.3756 44.392C21.4796 44.728 21.5356 45.088 21.5436 45.472C21.5516 45.6 21.5556 45.736 21.5556 45.88C21.5556 46.024 21.5516 46.16 21.5436 46.288C21.5356 46.664 21.4796 47.024 21.3756 47.368C21.2716 47.704 21.1156 48.004 20.9076 48.268C20.7076 48.524 20.4476 48.732 20.1276 48.892C19.8156 49.044 19.4356 49.12 18.9876 49.12C18.5236 49.12 18.1316 49.036 17.8116 48.868C17.4996 48.692 17.2436 48.476 17.0436 48.22V51.004C17.0436 51.084 17.0196 51.148 16.9716 51.196C16.9236 51.252 16.8556 51.28 16.7676 51.28H16.1916ZM18.7356 48.148C19.1516 48.148 19.4756 48.06 19.7076 47.884C19.9476 47.7 20.1196 47.464 20.2236 47.176C20.3276 46.88 20.3876 46.564 20.4036 46.228C20.4116 45.996 20.4116 45.764 20.4036 45.532C20.3876 45.196 20.3276 44.884 20.2236 44.596C20.1196 44.3 19.9476 44.064 19.7076 43.888C19.4756 43.704 19.1516 43.612 18.7356 43.612C18.3436 43.612 18.0236 43.704 17.7756 43.888C17.5356 44.072 17.3556 44.308 17.2356 44.596C17.1236 44.876 17.0596 45.164 17.0436 45.46C17.0356 45.588 17.0316 45.74 17.0316 45.916C17.0316 46.092 17.0356 46.248 17.0436 46.384C17.0516 46.664 17.1156 46.94 17.2356 47.212C17.3636 47.484 17.5516 47.708 17.7996 47.884C18.0476 48.06 18.3596 48.148 18.7356 48.148ZM25.2241 49.12C24.7521 49.12 24.3521 49.064 24.0241 48.952C23.7041 48.832 23.4441 48.684 23.2441 48.508C23.0521 48.324 22.9121 48.136 22.8241 47.944C22.7361 47.744 22.6881 47.56 22.6801 47.392C22.6801 47.32 22.7041 47.264 22.7521 47.224C22.8001 47.176 22.8561 47.152 22.9201 47.152H23.4841C23.5561 47.152 23.6161 47.172 23.6641 47.212C23.7121 47.244 23.7481 47.304 23.7721 47.392C23.8681 47.696 24.0521 47.908 24.3241 48.028C24.5961 48.148 24.9281 48.208 25.3201 48.208C25.5761 48.208 25.8121 48.176 26.0281 48.112C26.2441 48.04 26.4121 47.928 26.5321 47.776C26.6601 47.624 26.7241 47.436 26.7241 47.212C26.7241 46.884 26.6281 46.636 26.4361 46.468C26.2521 46.3 25.9641 46.216 25.5721 46.216H24.9121C24.8321 46.216 24.7681 46.192 24.7201 46.144C24.6721 46.096 24.6481 46.032 24.6481 45.952V45.628C24.6481 45.556 24.6721 45.496 24.7201 45.448C24.7681 45.392 24.8321 45.364 24.9121 45.364H25.5001C25.8281 45.364 26.0801 45.3 26.2561 45.172C26.4321 45.044 26.5201 44.84 26.5201 44.56C26.5201 44.392 26.4801 44.232 26.4001 44.08C26.3201 43.928 26.1841 43.804 25.9921 43.708C25.8081 43.604 25.5521 43.552 25.2241 43.552C24.7601 43.552 24.4321 43.632 24.2401 43.792C24.0561 43.944 23.9241 44.172 23.8441 44.476C23.8121 44.564 23.7721 44.624 23.7241 44.656C23.6841 44.688 23.6241 44.704 23.5441 44.704H23.0041C22.9321 44.704 22.8721 44.684 22.8241 44.644C22.7761 44.604 22.7521 44.548 22.7521 44.476C22.7601 44.236 22.8121 44.008 22.9081 43.792C23.0121 43.576 23.1641 43.38 23.3641 43.204C23.5721 43.028 23.8281 42.892 24.1321 42.796C24.4441 42.692 24.8081 42.64 25.2241 42.64C25.8241 42.64 26.2961 42.732 26.6401 42.916C26.9921 43.1 27.2401 43.328 27.3841 43.6C27.5361 43.864 27.6121 44.128 27.6121 44.392C27.6121 44.704 27.5601 44.964 27.4561 45.172C27.3601 45.38 27.1681 45.556 26.8801 45.7C27.2401 45.836 27.4881 46.04 27.6241 46.312C27.7601 46.584 27.8321 46.9 27.8401 47.26C27.8481 47.676 27.7361 48.02 27.5041 48.292C27.2801 48.564 26.9721 48.772 26.5801 48.916C26.1881 49.052 25.7361 49.12 25.2241 49.12ZM29.4567 49C29.3847 49 29.3207 48.976 29.2647 48.928C29.2167 48.872 29.1927 48.812 29.1927 48.748V43.036C29.1927 42.956 29.2167 42.892 29.2647 42.844C29.3207 42.788 29.3887 42.76 29.4687 42.76H30.0447C30.1247 42.76 30.1887 42.788 30.2367 42.844C30.2847 42.892 30.3087 42.956 30.3087 43.036V48.124L29.9967 47.8L33.6327 42.94C33.6727 42.892 33.7167 42.852 33.7647 42.82C33.8127 42.78 33.8727 42.76 33.9447 42.76H34.4967C34.5607 42.76 34.6167 42.784 34.6647 42.832C34.7207 42.88 34.7487 42.936 34.7487 43V48.724C34.7487 48.804 34.7207 48.872 34.6647 48.928C34.6167 48.976 34.5527 49 34.4727 49H33.9087C33.8207 49 33.7527 48.976 33.7047 48.928C33.6567 48.872 33.6327 48.804 33.6327 48.724V43.936L33.9687 43.924L30.3087 48.82C30.2767 48.86 30.2367 48.9 30.1887 48.94C30.1407 48.98 30.0767 49 29.9967 49H29.4567ZM36.7812 49C36.7012 49 36.6332 48.976 36.5772 48.928C36.5292 48.872 36.5052 48.804 36.5052 48.724V43.036C36.5052 42.956 36.5292 42.892 36.5772 42.844C36.6332 42.788 36.7012 42.76 36.7812 42.76H37.3572C37.4372 42.76 37.5012 42.788 37.5492 42.844C37.5972 42.892 37.6212 42.956 37.6212 43.036V45.34H40.8972V43.036C40.8972 42.956 40.9212 42.892 40.9692 42.844C41.0252 42.788 41.0932 42.76 41.1732 42.76H41.7372C41.8172 42.76 41.8812 42.788 41.9292 42.844C41.9852 42.892 42.0132 42.956 42.0132 43.036V48.724C42.0132 48.804 41.9852 48.872 41.9292 48.928C41.8812 48.976 41.8172 49 41.7372 49H41.1732C41.0932 49 41.0252 48.976 40.9692 48.928C40.9212 48.872 40.8972 48.804 40.8972 48.724V46.3H37.6212V48.724C37.6212 48.804 37.5972 48.872 37.5492 48.928C37.5012 48.976 37.4372 49 37.3572 49H36.7812ZM45.5577 49.12C45.1577 49.12 44.7937 49.04 44.4657 48.88C44.1377 48.72 43.8737 48.504 43.6737 48.232C43.4737 47.96 43.3737 47.652 43.3737 47.308C43.3737 46.756 43.5977 46.316 44.0457 45.988C44.4937 45.66 45.0777 45.444 45.7977 45.34L47.5857 45.088V44.74C47.5857 44.356 47.4737 44.056 47.2497 43.84C47.0337 43.624 46.6777 43.516 46.1817 43.516C45.8217 43.516 45.5297 43.588 45.3057 43.732C45.0897 43.876 44.9377 44.06 44.8497 44.284C44.8017 44.404 44.7177 44.464 44.5977 44.464H44.0577C43.9697 44.464 43.9017 44.44 43.8537 44.392C43.8137 44.336 43.7937 44.272 43.7937 44.2C43.7937 44.08 43.8377 43.932 43.9257 43.756C44.0217 43.58 44.1657 43.408 44.3577 43.24C44.5497 43.072 44.7937 42.932 45.0897 42.82C45.3937 42.7 45.7617 42.64 46.1937 42.64C46.6737 42.64 47.0777 42.704 47.4057 42.832C47.7337 42.952 47.9897 43.116 48.1737 43.324C48.3657 43.532 48.5017 43.768 48.5817 44.032C48.6697 44.296 48.7137 44.564 48.7137 44.836V48.724C48.7137 48.804 48.6857 48.872 48.6297 48.928C48.5817 48.976 48.5177 49 48.4377 49H47.8857C47.7977 49 47.7297 48.976 47.6817 48.928C47.6337 48.872 47.6097 48.804 47.6097 48.724V48.208C47.5057 48.352 47.3657 48.496 47.1897 48.64C47.0137 48.776 46.7937 48.892 46.5297 48.988C46.2657 49.076 45.9417 49.12 45.5577 49.12ZM45.8097 48.22C46.1377 48.22 46.4377 48.152 46.7097 48.016C46.9817 47.872 47.1937 47.652 47.3457 47.356C47.5057 47.06 47.5857 46.688 47.5857 46.24V45.904L46.1937 46.108C45.6257 46.188 45.1977 46.324 44.9097 46.516C44.6217 46.7 44.4777 46.936 44.4777 47.224C44.4777 47.448 44.5417 47.636 44.6697 47.788C44.8057 47.932 44.9737 48.04 45.1737 48.112C45.3817 48.184 45.5937 48.22 45.8097 48.22Z" fill="#414141"/>
</svg>
